<svg xmlns="http://www.w3.org/2000/svg" width="229.51712036132812" height="231.2021942138672" viewBox="-19.57537078857422 -6.358640670776367 229.51712036132812 231.2021942138672"><title>Neo4j Graph Visualization</title><desc>Created using Neo4j (http://www.neo4j.com/)</desc><g class="layer relationships"><g class="relationship" transform="translate(180.94176444188645 163.32594511273905) rotate(203.8747548059037)"><path class="outline" fill="#A5ABB6" stroke="none" d="M 25 0.5 L 28.034005952559426 0.5 L 28.034005952559426 -0.5 L 25 -0.5 Z M 73.59650595255943 0.5 L 76.63051190511885 0.5 L 76.63051190511885 3.5 L 83.63051190511885 0 L 76.63051190511885 -3.5 L 76.63051190511885 -0.5 L 73.59650595255943 -0.5 Z"/><text text-anchor="middle" pointer-events="none" font-size="8px" fill="#000000" x="50.815255952559426" y="3" transform="rotate(180 50.815255952559426 0)" font-family="sans-serif">ACTED_IN</text></g><g class="relationship" transform="translate(156.72926274554993 39.99159347076002) rotate(493.4261922376709)"><path class="outline" fill="#A5ABB6" stroke="none" d="M 25 0.5 L 27.695809908075105 0.5 L 27.695809908075105 -0.5 L 25 -0.5 Z M 74.5864349080751 0.5 L 77.28224481615021 0.5 L 77.28224481615021 3.5 L 84.28224481615021 0 L 77.28224481615021 -3.5 L 77.28224481615021 -0.5 L 74.5864349080751 -0.5 Z"/><text text-anchor="middle" pointer-events="none" font-size="8px" fill="#000000" x="51.141122408075105" y="3" transform="rotate(180 51.141122408075105 0)" font-family="sans-serif">DIRECTED</text></g><g class="relationship" transform="translate(32.21549573368756 22.641360112378873) rotate(422.9478546386227)"><path class="outline" fill="#A5ABB6" stroke="none" d="M 25 0.5 L 32.91283996575536 0.5 L 32.91283996575536 -0.5 L 25 -0.5 Z M 68.68627746575535 0.5 L 76.59911743151072 0.5 L 76.59911743151072 3.5 L 83.59911743151072 0 L 76.59911743151072 -3.5 L 76.59911743151072 -0.5 L 68.68627746575535 -0.5 Z"/><text text-anchor="middle" pointer-events="none" font-size="8px" fill="#000000" x="50.79955871575536" y="3" font-family="sans-serif">WROTE</text></g><g class="relationship" transform="translate(9.424629358855128 195.84355263324514) rotate(313.34220874718727)"><path class="outline" fill="#A5ABB6" stroke="none" d="M 25 0.5 L 26.30228996591361 0.5 L 26.30228996591361 -0.5 L 25 -0.5 Z M 71.86478996591362 0.5 L 73.16707993182722 0.5 L 73.16707993182722 3.5 L 80.16707993182722 0 L 73.16707993182722 -3.5 L 73.16707993182722 -0.5 L 71.86478996591362 -0.5 Z"/><text text-anchor="middle" pointer-events="none" font-size="8px" fill="#000000" x="49.08353996591361" y="3" font-family="sans-serif">ACTED_IN</text></g></g><g class="layer nodes"><g class="node" transform="translate(81.60650726606993,119.35897115975291)"><circle class="outline" cx="0" cy="0" r="25" fill="#F79767" stroke="#f36924" stroke-width="2px"/><text text-anchor="middle" pointer-events="none" font-family="sans-serif" dy="1.5625" font-size="25" fill="#FFFFFF"/><text text-anchor="middle" pointer-events="none" font-family="sans-serif" dy="1.5625" font-size="25" fill="#FFFFFF"/><text text-anchor="middle" pointer-events="none" font-family="sans-serif" dy="1.5625" font-size="25" fill="#FFFFFF"/><text text-anchor="middle" pointer-events="none" y="-5" font-size="10px" fill="#FFFFFF" font-family="sans-serif"> Captain</text><text text-anchor="middle" pointer-events="none" y="5" font-size="10px" fill="#FFFFFF" font-family="sans-serif"> America:</text><text text-anchor="middle" pointer-events="none" y="15" font-size="10px" fill="#FFFFFF" font-family="sans-serif"> The Fi…</text></g><g class="node" transform="translate(180.94176444188645,163.32594511273905)"><circle class="outline" cx="0" cy="0" r="25" fill="#57C7E3" stroke="#23b3d7" stroke-width="2px"/><text text-anchor="middle" pointer-events="none" font-family="sans-serif" dy="1.5625" font-size="25" fill="#FFFFFF"/><text text-anchor="middle" pointer-events="none" font-family="sans-serif" dy="1.5625" font-size="25" fill="#FFFFFF"/><text text-anchor="middle" pointer-events="none" y="0" font-size="10px" fill="#FFFFFF" font-family="sans-serif"> Chris</text><text text-anchor="middle" pointer-events="none" y="10" font-size="10px" fill="#FFFFFF" font-family="sans-serif"> Evans</text></g><g class="node" transform="translate(156.72926274554993,39.99159347076002)"><circle class="outline" cx="0" cy="0" r="25" fill="#57C7E3" stroke="#23b3d7" stroke-width="2px"/><text text-anchor="middle" pointer-events="none" font-family="sans-serif" dy="1.5625" font-size="25" fill="#FFFFFF"/><text text-anchor="middle" pointer-events="none" font-family="sans-serif" dy="1.5625" font-size="25" fill="#FFFFFF"/><text text-anchor="middle" pointer-events="none" y="0" font-size="10px" fill="#FFFFFF" font-family="sans-serif"> Joe</text><text text-anchor="middle" pointer-events="none" y="10" font-size="10px" fill="#FFFFFF" font-family="sans-serif"> Johnston</text></g><g class="node" transform="translate(32.21549573368756,22.641360112378873)"><circle class="outline" cx="0" cy="0" r="25" fill="#57C7E3" stroke="#23b3d7" stroke-width="2px"/><text text-anchor="middle" pointer-events="none" font-family="sans-serif" dy="1.5625" font-size="25" fill="#FFFFFF"/><text text-anchor="middle" pointer-events="none" y="5" font-size="10px" fill="#FFFFFF" font-family="sans-serif"> Christop…</text></g><g class="node" transform="translate(9.424629358855128,195.84355263324514)"><circle class="outline" cx="0" cy="0" r="25" fill="#57C7E3" stroke="#23b3d7" stroke-width="2px"/><text text-anchor="middle" pointer-events="none" font-family="sans-serif" dy="1.5625" font-size="25" fill="#FFFFFF"/><text text-anchor="middle" pointer-events="none" font-family="sans-serif" dy="1.5625" font-size="25" fill="#FFFFFF"/><text text-anchor="middle" pointer-events="none" y="0" font-size="10px" fill="#FFFFFF" font-family="sans-serif"> Hayley</text><text text-anchor="middle" pointer-events="none" y="10" font-size="10px" fill="#FFFFFF" font-family="sans-serif"> Atwell</text></g></g></svg>