<svg xmlns="http://www.w3.org/2000/svg" width="614.2041015625" height="568.1856689453125" viewBox="-197.86033630371094 -187.0883331298828 614.2041015625 568.1856689453125"><title>Neo4j Graph Visualization</title><desc>Created using Neo4j (http://www.neo4j.com/)</desc><g class="layer relationships"><g class="relationship" transform="translate(176.54376339504367 352.0973493766357) rotate(303.28400021548435)"><path class="outline" fill="#A5ABB6" stroke="none" d="M 25 0.5 L 33.81234197664301 0.5 L 33.81234197664301 -0.5 L 25 -0.5 Z M 80.70296697664301 0.5 L 89.51530895328602 0.5 L 89.51530895328602 3.5 L 96.51530895328602 0 L 89.51530895328602 -3.5 L 89.51530895328602 -0.5 L 80.70296697664301 -0.5 Z"/><text text-anchor="middle" pointer-events="none" font-size="8px" fill="#000000" x="57.25765447664301" y="3" font-family="sans-serif">DIRECTED</text></g><g class="relationship" transform="translate(270.62612557705745 134.19152432284284) rotate(419.9959226750454)"><path class="outline" fill="#A5ABB6" stroke="none" d="M 25 0.5 L 40.78741603613477 0.5 L 40.78741603613477 -0.5 L 25 -0.5 Z M 87.67804103613477 0.5 L 103.46545707226954 0.5 L 103.46545707226954 3.5 L 110.46545707226954 0 L 103.46545707226954 -3.5 L 103.46545707226954 -0.5 L 87.67804103613477 -0.5 Z"/><text text-anchor="middle" pointer-events="none" font-size="8px" fill="#000000" x="64.23272853613477" y="3" font-family="sans-serif">DIRECTED</text></g><g class="relationship" transform="translate(270.62612557705745 134.19152432284284) rotate(463.2525329631926)"><path class="outline" fill="#A5ABB6" stroke="none" d="M 25 0.5 L 32.80787172142 0.5 L 32.80787172142 -0.5 L 25 -0.5 Z M 79.69849672142 0.5 L 87.50636844284 0.5 L 87.50636844284 3.5 L 94.50636844284 0 L 87.50636844284 -3.5 L 87.50636844284 -0.5 L 79.69849672142 -0.5 Z"/><text text-anchor="middle" pointer-events="none" font-size="8px" fill="#000000" x="56.25318422142" y="3" transform="rotate(180 56.25318422142 0)" font-family="sans-serif">DIRECTED</text></g><g class="relationship" transform="translate(270.62612557705745 134.19152432284284) rotate(288.2172117586768)"><path class="outline" fill="#A5ABB6" stroke="none" d="M 24.018736134675446,6.953439040707552 L 24.277555179777966,5.987513214418485 A 97.65720950245716 97.65720950245716 0 0 0 30.27291686276999,7.392969973042398 L 30.07548971810715,8.373287535136583 A 98.65720950245716 98.65720950245716 0 0 1 24.018736134675446,6.953439040707552 Z M 65.82762002424619,8.963519267813737 L 65.66265976218587,7.977219053912819 A 97.65720950245716 97.65720950245716 0 0 0 71.70114701344035,6.770429044554367 L 71.02076572149991,3.848600627693193 L 78.63214353477316,5.669844099503564 L 72.60832206936092,10.666200267035933 L 71.92794077742049,7.744371850174758 A 98.65720950245716 98.65720950245716 0 0 1 65.82762002424619,8.963519267813737"/><text text-anchor="middle" pointer-events="none" font-size="8px" fill="#000000" x="47.9328448139179" y="12.801728446735964" font-family="sans-serif">WROTE</text></g><g class="relationship" transform="translate(270.62612557705745 134.19152432284284) rotate(514.8775739916377)"><path class="outline" fill="#A5ABB6" stroke="none" d="M 25 0.5 L 26.968748538663014 0.5 L 26.968748538663014 -0.5 L 25 -0.5 Z M 54.746092288663014 0.5 L 56.71484082732603 0.5 L 56.71484082732603 3.5 L 63.71484082732603 0 L 56.71484082732603 -3.5 L 56.71484082732603 -0.5 L 54.746092288663014 -0.5 Z"/><text text-anchor="middle" pointer-events="none" font-size="8px" fill="#000000" x="40.857420413663014" y="3" transform="rotate(180 40.857420413663014 0)" font-family="sans-serif">DIR…</text></g><g class="relationship" transform="translate(270.62612557705745 134.19152432284284) rotate(288.2172117586768)"><path class="outline" fill="#A5ABB6" stroke="none" d="M 24.018736134675446,-6.953439040707552 L 24.277555179777966,-5.987513214418485 A 97.65720950245716 97.65720950245716 0 0 1 26.815564504900017,-6.6312308330716405 L 26.58273441993728,-7.603748263011198 A 98.65720950245716 98.65720950245716 0 0 0 24.018736134675446,-6.953439040707552 Z M 69.34387367834937,-8.309691687909947 L 69.14327229414667,-7.330018740107491 A 97.65720950245716 97.65720950245716 0 0 1 71.70114701344035,-6.770429044554367 L 71.02076572149991,-3.848600627693193 L 78.63214353477316,-5.669844099503564 L 72.60832206936092,-10.666200267035933 L 71.92794077742049,-7.744371850174758 A 98.65720950245716 98.65720950245716 0 0 0 69.34387367834937,-8.309691687909947"/><text text-anchor="middle" pointer-events="none" font-size="8px" fill="#000000" x="47.93284481391789" y="-6.801728446735964" font-family="sans-serif">PRODU…</text></g><g class="relationship" transform="translate(270.62612557705745 134.19152432284284) rotate(339.1364967764456)"><path class="outline" fill="#A5ABB6" stroke="none" d="M 25 0.5 L 35.50847780098146 0.5 L 35.50847780098146 -0.5 L 25 -0.5 Z M 82.39910280098147 0.5 L 92.90758060196292 0.5 L 92.90758060196292 3.5 L 99.90758060196292 0 L 92.90758060196292 -3.5 L 92.90758060196292 -0.5 L 82.39910280098147 -0.5 Z"/><text text-anchor="middle" pointer-events="none" font-size="8px" fill="#000000" x="58.95379030098146" y="3" font-family="sans-serif">DIRECTED</text></g><g class="relationship" transform="translate(323.2011405343676 162.94171919280913) rotate(492.40191410635146)"><path class="outline" fill="#A5ABB6" stroke="none" d="M 25 0.5 L 32.35162880672486 0.5 L 32.35162880672486 -0.5 L 25 -0.5 Z M 79.24225380672486 0.5 L 86.59388261344972 0.5 L 86.59388261344972 3.5 L 93.59388261344972 0 L 86.59388261344972 -3.5 L 86.59388261344972 -0.5 L 79.24225380672486 -0.5 Z"/><text text-anchor="middle" pointer-events="none" font-size="8px" fill="#000000" x="55.79694130672486" y="3" transform="rotate(180 55.79694130672486 0)" font-family="sans-serif">DIRECTED</text></g><g class="relationship" transform="translate(323.2011405343676 162.94171919280913) rotate(260.8523245616135)"><path class="outline" fill="#A5ABB6" stroke="none" d="M 24.018736134675446,6.953439040707552 L 24.277555179777966,5.987513214418485 A 147.84914804695285 147.84914804695285 0 0 0 42.791905716428595,9.700043771102486 L 42.65831127208448,10.69107985744867 A 148.84914804695285 148.84914804695285 0 0 1 24.018736134675446,6.953439040707552 Z M 78.46218933604607,11.171714620810093 L 78.3552457690294,10.177449528657235 A 147.84914804695285 147.84914804695285 0 0 0 96.96258148719896,6.963244121466547 L 96.26419022599757,4.045668133376855 L 103.88665733627514,5.819927176678253 L 97.89376983546748,10.853345438919467 L 97.19537857426609,7.935769450829776 A 148.84914804695285 148.84914804695285 0 0 1 78.46218933604607,11.171714620810093"/><text text-anchor="middle" pointer-events="none" font-size="8px" fill="#000000" x="60.55245642584905" y="14.51198584105964" transform="rotate(180 60.55245642584905 11.51198584105964)" font-family="sans-serif">WROTE</text></g><g class="relationship" transform="translate(323.2011405343676 162.94171919280913) rotate(440.28242197377864)"><path class="outline" fill="#A5ABB6" stroke="none" d="M 25 0.5 L 27.536685201859605 0.5 L 27.536685201859605 -0.5 L 25 -0.5 Z M 55.314028951859605 0.5 L 57.85071415371921 0.5 L 57.85071415371921 3.5 L 64.85071415371921 0 L 57.85071415371921 -3.5 L 57.85071415371921 -0.5 L 55.314028951859605 -0.5 Z"/><text text-anchor="middle" pointer-events="none" font-size="8px" fill="#000000" x="41.425357076859605" y="3" font-family="sans-serif">DIR…</text></g><g class="relationship" transform="translate(323.2011405343676 162.94171919280913) rotate(536.1626679166357)"><path class="outline" fill="#A5ABB6" stroke="none" d="M 25 0.5 L 39.65283102531835 0.5 L 39.65283102531835 -0.5 L 25 -0.5 Z M 86.54345602531835 0.5 L 101.1962870506367 0.5 L 101.1962870506367 3.5 L 108.1962870506367 0 L 101.1962870506367 -3.5 L 101.1962870506367 -0.5 L 86.54345602531835 -0.5 Z"/><text text-anchor="middle" pointer-events="none" font-size="8px" fill="#000000" x="63.09814352531835" y="3" transform="rotate(180 63.09814352531835 0)" font-family="sans-serif">DIRECTED</text></g><g class="relationship" transform="translate(323.2011405343676 162.94171919280913) rotate(311.21330694338644)"><path class="outline" fill="#A5ABB6" stroke="none" d="M 25 0.5 L 25.73130911304284 0.5 L 25.73130911304284 -0.5 L 25 -0.5 Z M 64.62193411304284 0.5 L 65.35324322608568 0.5 L 65.35324322608568 3.5 L 72.35324322608568 0 L 65.35324322608568 -3.5 L 65.35324322608568 -0.5 L 64.62193411304284 -0.5 Z"/><text text-anchor="middle" pointer-events="none" font-size="8px" fill="#000000" x="45.17662161304284" y="3" font-family="sans-serif">DIREC…</text></g><g class="relationship" transform="translate(323.2011405343676 162.94171919280913) rotate(260.8523245616135)"><path class="outline" fill="#A5ABB6" stroke="none" d="M 24.018736134675446,-6.953439040707552 L 24.277555179777966,-5.987513214418485 A 147.84914804695285 147.84914804695285 0 0 1 34.919056631682814,-8.421677597433131 L 34.73221298577925,-9.40406726145929 A 148.84914804695285 148.84914804695285 0 0 0 24.018736134675446,-6.953439040707552 Z M 86.41997921009352,-10.09792889408817 L 86.25957353074055,-9.11087772113342 A 147.84914804695285 147.84914804695285 0 0 1 96.96258148719896,-6.963244121466547 L 96.26419022599757,-4.045668133376855 L 103.88665733627514,-5.819927176678253 L 97.89376983546748,-10.853345438919467 L 97.19537857426609,-7.935769450829776 A 148.84914804695285 148.84914804695285 0 0 0 86.41997921009352,-10.09792889408817"/><text text-anchor="middle" pointer-events="none" font-size="8px" fill="#000000" x="60.55245642584899" y="-8.51198584105964" transform="rotate(180 60.55245642584899 -11.51198584105964)" font-family="sans-serif">PRODUCED</text></g><g class="relationship" transform="translate(296.6542755171571 -79.8558836036381) rotate(446.9634040982598)"><path class="outline" fill="#A5ABB6" stroke="none" d="M 25 0.5 L 31.2505374984745 0.5 L 31.2505374984745 -0.5 L 25 -0.5 Z M 78.1411624984745 0.5 L 84.391699996949 0.5 L 84.391699996949 3.5 L 91.391699996949 0 L 84.391699996949 -3.5 L 84.391699996949 -0.5 L 78.1411624984745 -0.5 Z"/><text text-anchor="middle" pointer-events="none" font-size="8px" fill="#000000" x="54.6958499984745" y="3" font-family="sans-serif">DIRECTED</text></g><g class="relationship" transform="translate(-134.51846291514917 42.05803824829139) rotate(303.14372789334834)"><path class="outline" fill="#A5ABB6" stroke="none" d="M 25 0.5 L 33.95966758885692 0.5 L 33.95966758885692 -0.5 L 25 -0.5 Z M 80.85029258885692 0.5 L 89.80996017771383 0.5 L 89.80996017771383 3.5 L 96.80996017771383 0 L 89.80996017771383 -3.5 L 89.80996017771383 -0.5 L 80.85029258885692 -0.5 Z"/><text text-anchor="middle" pointer-events="none" font-size="8px" fill="#000000" x="57.40498008885692" y="3" font-family="sans-serif">DIRECTED</text></g><g class="relationship" transform="translate(-134.51846291514917 42.05803824829139) rotate(251.16928500356744)"><path class="outline" fill="#A5ABB6" stroke="none" d="M 25 0.5 L 25.112193772485895 0.5 L 25.112193772485895 -0.5 L 25 -0.5 Z M 58.225475022485895 0.5 L 58.33766879497179 0.5 L 58.33766879497179 3.5 L 65.33766879497179 0 L 58.33766879497179 -3.5 L 58.33766879497179 -0.5 L 58.225475022485895 -0.5 Z"/><text text-anchor="middle" pointer-events="none" font-size="8px" fill="#000000" x="41.668834397485895" y="3" transform="rotate(180 41.668834397485895 0)" font-family="sans-serif">DIRE…</text></g><g class="relationship" transform="translate(-134.51846291514917 42.05803824829139) rotate(467.0218741728104)"><path class="outline" fill="#A5ABB6" stroke="none" d="M 24.018736134675446,-6.953439040707552 L 24.277555179777966,-5.987513214418485 A 101.2983460035094 101.2983460035094 0 0 1 31.17086435607555,-7.578812867290566 L 30.980094883826457,-8.560447732430248 A 102.2983460035094 102.2983460035094 0 0 0 24.018736134675446,-6.953439040707552 Z M 66.73983299520563,-9.141186640837375 L 66.5810392583863,-8.153874861738728 A 101.2983460035094 101.2983460035094 0 0 1 73.52238518687761,-6.787250302367612 L 72.8404326259777,-3.865788218978195 L 80.45278880826957,-5.682938007499359 L 74.4316552680775,-10.682533080220168 L 73.74970270717759,-7.761070996830751 A 102.2983460035094 102.2983460035094 0 0 0 66.73983299520563,-9.141186640837375"/><text text-anchor="middle" pointer-events="none" font-size="8px" fill="#000000" x="48.84250701997253" y="-6.925749246584516" transform="rotate(180 48.84250701997253 -9.925749246584516)" font-family="sans-serif">WROTE</text></g><g class="relationship" transform="translate(-134.51846291514917 42.05803824829139) rotate(418.95363030743096)"><path class="outline" fill="#A5ABB6" stroke="none" d="M 25 0.5 L 37.08228993646901 0.5 L 37.08228993646901 -0.5 L 25 -0.5 Z M 83.97291493646901 0.5 L 96.05520487293802 0.5 L 96.05520487293802 3.5 L 103.05520487293802 0 L 96.05520487293802 -3.5 L 96.05520487293802 -0.5 L 83.97291493646901 -0.5 Z"/><text text-anchor="middle" pointer-events="none" font-size="8px" fill="#000000" x="60.52760243646901" y="3" font-family="sans-serif">DIRECTED</text></g><g class="relationship" transform="translate(-134.51846291514917 42.05803824829139) rotate(345.74782150345084)"><path class="outline" fill="#A5ABB6" stroke="none" d="M 25 0.5 L 41.80566884863174 0.5 L 41.80566884863174 -0.5 L 25 -0.5 Z M 88.69629384863174 0.5 L 105.50196269726348 0.5 L 105.50196269726348 3.5 L 112.50196269726348 0 L 105.50196269726348 -3.5 L 105.50196269726348 -0.5 L 88.69629384863174 -0.5 Z"/><text text-anchor="middle" pointer-events="none" font-size="8px" fill="#000000" x="65.25098134863174" y="3" font-family="sans-serif">DIRECTED</text></g><g class="relationship" transform="translate(-134.51846291514917 42.05803824829139) rotate(467.0218741728104)"><path class="outline" fill="#A5ABB6" stroke="none" d="M 24.018736134675446,6.953439040707552 L 24.277555179777966,5.987513214418485 A 101.2983460035094 101.2983460035094 0 0 0 24.916042415142204,6.156366471887608 L 24.66352640716274,7.123959188744308 A 102.2983460035094 102.2983460035094 0 0 1 24.018736134675446,6.953439040707552 Z M 73.0997154154427,7.910563929653165 L 72.87875173483934,6.935281892571467 A 101.2983460035094 101.2983460035094 0 0 0 73.52238518687761,6.787250302367612 L 72.8404326259777,3.865788218978195 L 80.45278880826957,5.682938007499359 L 74.4316552680775,10.682533080220168 L 73.74970270717759,7.761070996830751 A 102.2983460035094 102.2983460035094 0 0 1 73.0997154154427,7.910563929653165"/><text text-anchor="middle" pointer-events="none" font-size="8px" fill="#000000" x="48.84250701997254" y="12.925749246584516" transform="rotate(180 48.84250701997254 9.925749246584516)" font-family="sans-serif">PRODUC…</text></g><g class="relationship" transform="translate(-76.1079752763778 55.41713449219085) rotate(228.46629386744252)"><path class="outline" fill="#A5ABB6" stroke="none" d="M 25 0.5 L 39.08867330525014 0.5 L 39.08867330525014 -0.5 L 25 -0.5 Z M 85.97929830525014 0.5 L 100.06797161050028 0.5 L 100.06797161050028 3.5 L 107.06797161050028 0 L 100.06797161050028 -3.5 L 100.06797161050028 -0.5 L 85.97929830525014 -0.5 Z"/><text text-anchor="middle" pointer-events="none" font-size="8px" fill="#000000" x="62.53398580525014" y="3" transform="rotate(180 62.53398580525014 0)" font-family="sans-serif">DIRECTED</text></g><g class="relationship" transform="translate(-76.1079752763778 55.41713449219085) rotate(274.06025818909444)"><path class="outline" fill="#A5ABB6" stroke="none" d="M 25 0.5 L 30.875200036294103 0.5 L 30.875200036294103 -0.5 L 25 -0.5 Z M 77.7658250362941 0.5 L 83.6410250725882 0.5 L 83.6410250725882 3.5 L 90.6410250725882 0 L 83.6410250725882 -3.5 L 83.6410250725882 -0.5 L 77.7658250362941 -0.5 Z"/><text text-anchor="middle" pointer-events="none" font-size="8px" fill="#000000" x="54.3205125362941" y="3" font-family="sans-serif">DIRECTED</text></g><g class="relationship" transform="translate(-76.1079752763778 55.41713449219085) rotate(327.76205924777986)"><path class="outline" fill="#A5ABB6" stroke="none" d="M 25 0.5 L 26.86282225560641 0.5 L 26.86282225560641 -0.5 L 25 -0.5 Z M 54.64016600560641 0.5 L 56.50298826121282 0.5 L 56.50298826121282 3.5 L 63.50298826121282 0 L 56.50298826121282 -3.5 L 56.50298826121282 -0.5 L 54.64016600560641 -0.5 Z"/><text text-anchor="middle" pointer-events="none" font-size="8px" fill="#000000" x="40.75149413060641" y="3" font-family="sans-serif">DIR…</text></g><g class="relationship" transform="translate(-76.1079752763778 55.41713449219085) rotate(495.7295993359537)"><path class="outline" fill="#A5ABB6" stroke="none" d="M 24.018736134675446,-6.953439040707552 L 24.277555179777966,-5.987513214418485 A 140.3574022298766 140.3574022298766 0 0 1 33.04779501447024,-8.038310729740772 L 32.851461023204266,-9.018847809036401 A 141.3574022298766 141.3574022298766 0 0 0 24.018736134675446,-6.953439040707552 Z M 84.5194768402818,-9.732448689351827 L 84.3502974944177,-8.746863406926707 A 140.3574022298766 140.3574022298766 0 0 1 93.17382953022721,-6.939058212798005 L 92.47769726328269,-4.020942405137401 L 100.09878845925937,-5.801102224537582 L 94.10200588615322,-10.82987928967881 L 93.4058736192087,-7.911763482018206 A 141.3574022298766 141.3574022298766 0 0 0 84.5194768402818,-9.732448689351827"/><text text-anchor="middle" pointer-events="none" font-size="8px" fill="#000000" x="58.659490002765345" y="-8.25664328487349" transform="rotate(180 58.659490002765345 -11.25664328487349)" font-family="sans-serif">PRODUCED</text></g><g class="relationship" transform="translate(-76.1079752763778 55.41713449219085) rotate(495.7295993359537)"><path class="outline" fill="#A5ABB6" stroke="none" d="M 24.018736134675446,6.953439040707552 L 24.277555179777966,5.987513214418485 A 140.3574022298766 140.3574022298766 0 0 0 40.90833205379346,9.381204118438632 L 40.768001785269874,10.371308868319204 A 141.3574022298766 141.3574022298766 0 0 1 24.018736134675446,6.953439040707552 Z M 76.56860439788551,10.865760631875048 L 76.45567164623561,9.872157998220729 A 140.3574022298766 140.3574022298766 0 0 0 93.17382953022721,6.939058212798005 L 92.47769726328269,4.020942405137401 L 100.09878845925937,5.801102224537582 L 94.10200588615322,10.82987928967881 L 93.4058736192087,7.911763482018206 A 141.3574022298766 141.3574022298766 0 0 1 76.56860439788551,10.865760631875048"/><text text-anchor="middle" pointer-events="none" font-size="8px" fill="#000000" x="58.65949000276535" y="14.25664328487349" transform="rotate(180 58.65949000276535 11.25664328487349)" font-family="sans-serif">WROTE</text></g><g class="relationship" transform="translate(-76.1079752763778 55.41713449219085) rotate(445.4713113862874)"><path class="outline" fill="#A5ABB6" stroke="none" d="M 25 0.5 L 25.381681000757027 0.5 L 25.381681000757027 -0.5 L 25 -0.5 Z M 64.27230600075703 0.5 L 64.65398700151405 0.5 L 64.65398700151405 3.5 L 71.65398700151405 0 L 64.65398700151405 -3.5 L 64.65398700151405 -0.5 L 64.27230600075703 -0.5 Z"/><text text-anchor="middle" pointer-events="none" font-size="8px" fill="#000000" x="44.82699350075703" y="3" font-family="sans-serif">DIREC…</text></g><g class="relationship" transform="translate(2.32868827177586 -158.0883374432437) rotate(485.59103703387416)"><path class="outline" fill="#A5ABB6" stroke="none" d="M 25 0.5 L 33.406186632467225 0.5 L 33.406186632467225 -0.5 L 25 -0.5 Z M 80.29681163246723 0.5 L 88.70299826493445 0.5 L 88.70299826493445 3.5 L 95.70299826493445 0 L 88.70299826493445 -3.5 L 88.70299826493445 -0.5 L 80.29681163246723 -0.5 Z"/><text text-anchor="middle" pointer-events="none" font-size="8px" fill="#000000" x="56.851499132467225" y="3" transform="rotate(180 56.851499132467225 0)" font-family="sans-serif">DIRECTED</text></g><g class="relationship" transform="translate(-168.8603323399887 259.85782366164796) rotate(271.7844536255599)"><path class="outline" fill="#A5ABB6" stroke="none" d="M 25 0.5 L 31.87940063462345 0.5 L 31.87940063462345 -0.5 L 25 -0.5 Z M 78.77002563462345 0.5 L 85.6494262692469 0.5 L 85.6494262692469 3.5 L 92.6494262692469 0 L 85.6494262692469 -3.5 L 85.6494262692469 -0.5 L 78.77002563462345 -0.5 Z"/><text text-anchor="middle" pointer-events="none" font-size="8px" fill="#000000" x="55.32471313462345" y="3" font-family="sans-serif">DIRECTED</text></g></g><g class="layer nodes"><g class="node" transform="translate(243.23007667881825,250.51533359317713)"><circle class="outline" cx="0" cy="0" r="25" fill="#57C7E3" stroke="#23b3d7" stroke-width="2px"/><text text-anchor="middle" pointer-events="none" font-family="sans-serif" dy="1.5625" font-size="25" fill="#FFFFFF"/><text text-anchor="middle" pointer-events="none" font-family="sans-serif" dy="1.5625" font-size="25" fill="#FFFFFF"/><text text-anchor="middle" pointer-events="none" y="0" font-size="10px" fill="#FFFFFF" font-family="sans-serif"> Cloud</text><text text-anchor="middle" pointer-events="none" y="10" font-size="10px" fill="#FFFFFF" font-family="sans-serif"> Atlas</text></g><g class="node" transform="translate(176.54376339504367,352.0973493766357)"><circle class="outline" cx="0" cy="0" r="25" fill="#F79767" stroke="#f36924" stroke-width="2px"/><text text-anchor="middle" pointer-events="none" font-family="sans-serif" dy="1.5625" font-size="25" fill="#FFFFFF"/><text text-anchor="middle" pointer-events="none" font-family="sans-serif" dy="1.5625" font-size="25" fill="#FFFFFF"/><text text-anchor="middle" pointer-events="none" y="0" font-size="10px" fill="#FFFFFF" font-family="sans-serif"> Tom</text><text text-anchor="middle" pointer-events="none" y="10" font-size="10px" fill="#FFFFFF" font-family="sans-serif"> Tykwer</text></g><g class="node" transform="translate(270.62612557705745,134.19152432284284)"><circle class="outline" cx="0" cy="0" r="25" fill="#F79767" stroke="#f36924" stroke-width="2px"/><text text-anchor="middle" pointer-events="none" font-family="sans-serif" dy="1.5625" font-size="25" fill="#FFFFFF"/><text text-anchor="middle" pointer-events="none" font-family="sans-serif" dy="1.5625" font-size="25" fill="#FFFFFF"/><text text-anchor="middle" pointer-events="none" y="0" font-size="10px" fill="#FFFFFF" font-family="sans-serif"> Lana</text><text text-anchor="middle" pointer-events="none" y="10" font-size="10px" fill="#FFFFFF" font-family="sans-serif"> Wacho…</text></g><g class="node" transform="translate(323.2011405343676,162.94171919280913)"><circle class="outline" cx="0" cy="0" r="25" fill="#F79767" stroke="#f36924" stroke-width="2px"/><text text-anchor="middle" pointer-events="none" font-family="sans-serif" dy="1.5625" font-size="25" fill="#FFFFFF"/><text text-anchor="middle" pointer-events="none" font-family="sans-serif" dy="1.5625" font-size="25" fill="#FFFFFF"/><text text-anchor="middle" pointer-events="none" y="0" font-size="10px" fill="#FFFFFF" font-family="sans-serif"> Andy</text><text text-anchor="middle" pointer-events="none" y="10" font-size="10px" fill="#FFFFFF" font-family="sans-serif"> Wacho…</text></g><g class="node" transform="translate(302.81998489276685,36.372391166640135)"><circle class="outline" cx="0" cy="0" r="25" fill="#57C7E3" stroke="#23b3d7" stroke-width="2px"/><text text-anchor="middle" pointer-events="none" font-family="sans-serif" dy="1.5625" font-size="25" fill="#FFFFFF"/><text text-anchor="middle" pointer-events="none" font-family="sans-serif" dy="1.5625" font-size="25" fill="#FFFFFF"/><text text-anchor="middle" pointer-events="none" y="0" font-size="10px" fill="#FFFFFF" font-family="sans-serif"> V for</text><text text-anchor="middle" pointer-events="none" y="10" font-size="10px" fill="#FFFFFF" font-family="sans-serif"> Vendetta</text></g><g class="node" transform="translate(296.6542755171571,-79.8558836036381)"><circle class="outline" cx="0" cy="0" r="25" fill="#F79767" stroke="#f36924" stroke-width="2px"/><text text-anchor="middle" pointer-events="none" font-family="sans-serif" dy="1.5625" font-size="25" fill="#FFFFFF"/><text text-anchor="middle" pointer-events="none" font-family="sans-serif" dy="1.5625" font-size="25" fill="#FFFFFF"/><text text-anchor="middle" pointer-events="none" y="0" font-size="10px" fill="#FFFFFF" font-family="sans-serif"> James</text><text text-anchor="middle" pointer-events="none" y="10" font-size="10px" fill="#FFFFFF" font-family="sans-serif"> Marshall</text></g><g class="node" transform="translate(338.3672025078033,251.50323113875135)"><circle class="outline" cx="0" cy="0" r="25" fill="#57C7E3" stroke="#23b3d7" stroke-width="2px"/><text text-anchor="middle" pointer-events="none" font-family="sans-serif" dy="1.5625" font-size="25" fill="#FFFFFF"/><text text-anchor="middle" pointer-events="none" font-family="sans-serif" dy="1.5625" font-size="25" fill="#FFFFFF"/><text text-anchor="middle" pointer-events="none" font-family="sans-serif" dy="1.5625" font-size="25" fill="#FFFFFF"/><text text-anchor="middle" pointer-events="none" y="-5" font-size="10px" fill="#FFFFFF" font-family="sans-serif"> The</text><text text-anchor="middle" pointer-events="none" y="5" font-size="10px" fill="#FFFFFF" font-family="sans-serif"> Matrix</text><text text-anchor="middle" pointer-events="none" y="15" font-size="10px" fill="#FFFFFF" font-family="sans-serif"> Revol…</text></g><g class="node" transform="translate(387.3437063441896,89.70658269419907)"><circle class="outline" cx="0" cy="0" r="25" fill="#57C7E3" stroke="#23b3d7" stroke-width="2px"/><text text-anchor="middle" pointer-events="none" font-family="sans-serif" dy="1.5625" font-size="25" fill="#FFFFFF"/><text text-anchor="middle" pointer-events="none" font-family="sans-serif" dy="1.5625" font-size="25" fill="#FFFFFF"/><text text-anchor="middle" pointer-events="none" font-family="sans-serif" dy="1.5625" font-size="25" fill="#FFFFFF"/><text text-anchor="middle" pointer-events="none" y="-5" font-size="10px" fill="#FFFFFF" font-family="sans-serif"> The</text><text text-anchor="middle" pointer-events="none" y="5" font-size="10px" fill="#FFFFFF" font-family="sans-serif"> Matrix</text><text text-anchor="middle" pointer-events="none" y="15" font-size="10px" fill="#FFFFFF" font-family="sans-serif"> Reloa…</text></g><g class="node" transform="translate(190.30346962899122,171.85575037975755)"><circle class="outline" cx="0" cy="0" r="25" fill="#57C7E3" stroke="#23b3d7" stroke-width="2px"/><text text-anchor="middle" pointer-events="none" font-family="sans-serif" dy="1.5625" font-size="25" fill="#FFFFFF"/><text text-anchor="middle" pointer-events="none" font-family="sans-serif" dy="1.5625" font-size="25" fill="#FFFFFF"/><text text-anchor="middle" pointer-events="none" y="0" font-size="10px" fill="#FFFFFF" font-family="sans-serif"> The</text><text text-anchor="middle" pointer-events="none" y="10" font-size="10px" fill="#FFFFFF" font-family="sans-serif"> Matrix</text></g><g class="node" transform="translate(-67.91994578558604,-59.93364726890906)"><circle class="outline" cx="0" cy="0" r="25" fill="#57C7E3" stroke="#23b3d7" stroke-width="2px"/><text text-anchor="middle" pointer-events="none" font-family="sans-serif" dy="1.5625" font-size="25" fill="#FFFFFF"/><text text-anchor="middle" pointer-events="none" font-family="sans-serif" dy="1.5625" font-size="25" fill="#FFFFFF"/><text text-anchor="middle" pointer-events="none" y="0" font-size="10px" fill="#FFFFFF" font-family="sans-serif"> Cloud</text><text text-anchor="middle" pointer-events="none" y="10" font-size="10px" fill="#FFFFFF" font-family="sans-serif"> Atlas</text></g><g class="node" transform="translate(-134.51846291514917,42.05803824829139)"><circle class="outline" cx="0" cy="0" r="25" fill="#F79767" stroke="#f36924" stroke-width="2px"/><text text-anchor="middle" pointer-events="none" font-family="sans-serif" dy="1.5625" font-size="25" fill="#FFFFFF"/><text text-anchor="middle" pointer-events="none" font-family="sans-serif" dy="1.5625" font-size="25" fill="#FFFFFF"/><text text-anchor="middle" pointer-events="none" y="0" font-size="10px" fill="#FFFFFF" font-family="sans-serif"> Lilly</text><text text-anchor="middle" pointer-events="none" y="10" font-size="10px" fill="#FFFFFF" font-family="sans-serif"> Wacho…</text></g><g class="node" transform="translate(-76.1079752763778,55.41713449219085)"><circle class="outline" cx="0" cy="0" r="25" fill="#F79767" stroke="#f36924" stroke-width="2px"/><text text-anchor="middle" pointer-events="none" font-family="sans-serif" dy="1.5625" font-size="25" fill="#FFFFFF"/><text text-anchor="middle" pointer-events="none" font-family="sans-serif" dy="1.5625" font-size="25" fill="#FFFFFF"/><text text-anchor="middle" pointer-events="none" y="0" font-size="10px" fill="#FFFFFF" font-family="sans-serif"> Lana</text><text text-anchor="middle" pointer-events="none" y="10" font-size="10px" fill="#FFFFFF" font-family="sans-serif"> Wacho…</text></g><g class="node" transform="translate(2.32868827177586,-158.0883374432437)"><circle class="outline" cx="0" cy="0" r="25" fill="#F79767" stroke="#f36924" stroke-width="2px"/><text text-anchor="middle" pointer-events="none" font-family="sans-serif" dy="1.5625" font-size="25" fill="#FFFFFF"/><text text-anchor="middle" pointer-events="none" font-family="sans-serif" dy="1.5625" font-size="25" fill="#FFFFFF"/><text text-anchor="middle" pointer-events="none" y="0" font-size="10px" fill="#FFFFFF" font-family="sans-serif"> Tom</text><text text-anchor="middle" pointer-events="none" y="10" font-size="10px" fill="#FFFFFF" font-family="sans-serif"> Tykwer</text></g><g class="node" transform="translate(-68.47634530617474,151.7693603475739)"><circle class="outline" cx="0" cy="0" r="25" fill="#57C7E3" stroke="#23b3d7" stroke-width="2px"/><text text-anchor="middle" pointer-events="none" font-family="sans-serif" dy="1.5625" font-size="25" fill="#FFFFFF"/><text text-anchor="middle" pointer-events="none" font-family="sans-serif" dy="1.5625" font-size="25" fill="#FFFFFF"/><text text-anchor="middle" pointer-events="none" y="0" font-size="10px" fill="#FFFFFF" font-family="sans-serif"> The</text><text text-anchor="middle" pointer-events="none" y="10" font-size="10px" fill="#FFFFFF" font-family="sans-serif"> Matrix</text></g><g class="node" transform="translate(-163.67703471907768,-43.444430100085356)"><circle class="outline" cx="0" cy="0" r="25" fill="#57C7E3" stroke="#23b3d7" stroke-width="2px"/><text text-anchor="middle" pointer-events="none" font-family="sans-serif" dy="1.5625" font-size="25" fill="#FFFFFF"/><text text-anchor="middle" pointer-events="none" font-family="sans-serif" dy="1.5625" font-size="25" fill="#FFFFFF"/><text text-anchor="middle" pointer-events="none" font-family="sans-serif" dy="1.5625" font-size="25" fill="#FFFFFF"/><text text-anchor="middle" pointer-events="none" y="-5" font-size="10px" fill="#FFFFFF" font-family="sans-serif"> The</text><text text-anchor="middle" pointer-events="none" y="5" font-size="10px" fill="#FFFFFF" font-family="sans-serif"> Matrix</text><text text-anchor="middle" pointer-events="none" y="15" font-size="10px" fill="#FFFFFF" font-family="sans-serif"> Revol…</text></g><g class="node" transform="translate(-165.19678139617884,142.26545190240043)"><circle class="outline" cx="0" cy="0" r="25" fill="#57C7E3" stroke="#23b3d7" stroke-width="2px"/><text text-anchor="middle" pointer-events="none" font-family="sans-serif" dy="1.5625" font-size="25" fill="#FFFFFF"/><text text-anchor="middle" pointer-events="none" font-family="sans-serif" dy="1.5625" font-size="25" fill="#FFFFFF"/><text text-anchor="middle" pointer-events="none" y="0" font-size="10px" fill="#FFFFFF" font-family="sans-serif"> V for</text><text text-anchor="middle" pointer-events="none" y="10" font-size="10px" fill="#FFFFFF" font-family="sans-serif"> Vendetta</text></g><g class="node" transform="translate(-168.8603323399887,259.85782366164796)"><circle class="outline" cx="0" cy="0" r="25" fill="#F79767" stroke="#f36924" stroke-width="2px"/><text text-anchor="middle" pointer-events="none" font-family="sans-serif" dy="1.5625" font-size="25" fill="#FFFFFF"/><text text-anchor="middle" pointer-events="none" font-family="sans-serif" dy="1.5625" font-size="25" fill="#FFFFFF"/><text text-anchor="middle" pointer-events="none" y="0" font-size="10px" fill="#FFFFFF" font-family="sans-serif"> James</text><text text-anchor="middle" pointer-events="none" y="10" font-size="10px" fill="#FFFFFF" font-family="sans-serif"> Marshall</text></g><g class="node" transform="translate(-1.2485975317735392,8.206410129446487)"><circle class="outline" cx="0" cy="0" r="25" fill="#57C7E3" stroke="#23b3d7" stroke-width="2px"/><text text-anchor="middle" pointer-events="none" font-family="sans-serif" dy="1.5625" font-size="25" fill="#FFFFFF"/><text text-anchor="middle" pointer-events="none" font-family="sans-serif" dy="1.5625" font-size="25" fill="#FFFFFF"/><text text-anchor="middle" pointer-events="none" font-family="sans-serif" dy="1.5625" font-size="25" fill="#FFFFFF"/><text text-anchor="middle" pointer-events="none" y="-5" font-size="10px" fill="#FFFFFF" font-family="sans-serif"> The</text><text text-anchor="middle" pointer-events="none" y="5" font-size="10px" fill="#FFFFFF" font-family="sans-serif"> Matrix</text><text text-anchor="middle" pointer-events="none" y="15" font-size="10px" fill="#FFFFFF" font-family="sans-serif"> Reloa…</text></g></g></svg>