<svg xmlns="http://www.w3.org/2000/svg" width="580.858642578125" height="831.5321044921875" viewBox="-278.9847106933594 -300.437255859375 580.858642578125 831.5321044921875"><title>Neo4j Graph Visualization</title><desc>Created using Neo4j (http://www.neo4j.com/)</desc><g class="layer relationships"><g class="relationship" transform="translate(-62.99576306274365 347.21356953197045) rotate(396.2804245774572)"><path class="outline" fill="#A5ABB6" stroke="none" d="M 25 0.5 L 41.99990613840089 0.5 L 41.99990613840089 -0.5 L 25 -0.5 Z M 87.56240613840089 0.5 L 104.56231227680178 0.5 L 104.56231227680178 3.5 L 111.56231227680178 0 L 104.56231227680178 -3.5 L 104.56231227680178 -0.5 L 87.56240613840089 -0.5 Z"/><text text-anchor="middle" pointer-events="none" font-size="8px" fill="#000000" x="64.78115613840089" y="3" font-family="sans-serif">ACTED_IN</text></g><g class="relationship" transform="translate(-62.99576306274365 347.21356953197045) rotate(370.94000412646955)"><path class="outline" fill="#A5ABB6" stroke="none" d="M 25 0.5 L 28.98161779098978 0.5 L 28.98161779098978 -0.5 L 25 -0.5 Z M 74.54411779098979 0.5 L 78.52573558197956 0.5 L 78.52573558197956 3.5 L 85.52573558197956 0 L 78.52573558197956 -3.5 L 78.52573558197956 -0.5 L 74.54411779098979 -0.5 Z"/><text text-anchor="middle" pointer-events="none" font-size="8px" fill="#000000" x="51.76286779098978" y="3" font-family="sans-serif">ACTED_IN</text></g><g class="relationship" transform="translate(142.05013195881705 410.8453435142899) rotate(409.4683408964873)"><path class="outline" fill="#A5ABB6" stroke="none" d="M 25 0.5 L 33.74764425756365 0.5 L 33.74764425756365 -0.5 L 25 -0.5 Z M 79.31014425756365 0.5 L 88.0577885151273 0.5 L 88.0577885151273 3.5 L 95.0577885151273 0 L 88.0577885151273 -3.5 L 88.0577885151273 -0.5 L 79.31014425756365 -0.5 Z"/><text text-anchor="middle" pointer-events="none" font-size="8px" fill="#000000" x="56.52889425756365" y="3" font-family="sans-serif">ACTED_IN</text></g><g class="relationship" transform="translate(142.05013195881705 410.8453435142899) rotate(364.0367851260988)"><path class="outline" fill="#A5ABB6" stroke="none" d="M 25 0.5 L 38.50999518055724 0.5 L 38.50999518055724 -0.5 L 25 -0.5 Z M 84.07249518055724 0.5 L 97.58249036111448 0.5 L 97.58249036111448 3.5 L 104.58249036111448 0 L 97.58249036111448 -3.5 L 97.58249036111448 -0.5 L 84.07249518055724 -0.5 Z"/><text text-anchor="middle" pointer-events="none" font-size="8px" fill="#000000" x="61.29124518055724" y="3" font-family="sans-serif">ACTED_IN</text></g><g class="relationship" transform="translate(142.05013195881705 410.8453435142899) rotate(203.8406403139851)"><path class="outline" fill="#A5ABB6" stroke="none" d="M 25 0.5 L 26.48557690064139 0.5 L 26.48557690064139 -0.5 L 25 -0.5 Z M 72.04807690064139 0.5 L 73.53365380128278 0.5 L 73.53365380128278 3.5 L 80.53365380128278 0 L 73.53365380128278 -3.5 L 73.53365380128278 -0.5 L 72.04807690064139 -0.5 Z"/><text text-anchor="middle" pointer-events="none" font-size="8px" fill="#000000" x="49.26682690064139" y="3" transform="rotate(180 49.26682690064139 0)" font-family="sans-serif">ACTED_IN</text></g><g class="relationship" transform="translate(142.05013195881705 410.8453435142899) rotate(529.7465235427668)"><path class="outline" fill="#A5ABB6" stroke="none" d="M 25 0.5 L 27.08201332226769 0.5 L 27.08201332226769 -0.5 L 25 -0.5 Z M 62.41795082226769 0.5 L 64.49996414453538 0.5 L 64.49996414453538 3.5 L 71.49996414453538 0 L 64.49996414453538 -3.5 L 64.49996414453538 -0.5 L 62.41795082226769 -0.5 Z"/><text text-anchor="middle" pointer-events="none" font-size="8px" fill="#000000" x="44.74998207226769" y="3" transform="rotate(180 44.74998207226769 0)" font-family="sans-serif">ACTE…</text></g><g class="relationship" transform="translate(-55.336882350075925 411.2430821731863) rotate(336.8835855159125)"><path class="outline" fill="#A5ABB6" stroke="none" d="M 25 0.5 L 28.550334158997288 0.5 L 28.550334158997288 -0.5 L 25 -0.5 Z M 74.11283415899729 0.5 L 77.66316831799458 0.5 L 77.66316831799458 3.5 L 84.66316831799458 0 L 77.66316831799458 -3.5 L 77.66316831799458 -0.5 L 74.11283415899729 -0.5 Z"/><text text-anchor="middle" pointer-events="none" font-size="8px" fill="#000000" x="51.33158415899729" y="3" font-family="sans-serif">ACTED_IN</text></g><g class="relationship" transform="translate(-55.336882350075925 411.2430821731863) rotate(369.3034394324936)"><path class="outline" fill="#A5ABB6" stroke="none" d="M 25 0.5 L 25.615481061424852 0.5 L 25.615481061424852 -0.5 L 25 -0.5 Z M 71.17798106142484 0.5 L 71.7934621228497 0.5 L 71.7934621228497 3.5 L 78.7934621228497 0 L 71.7934621228497 -3.5 L 71.7934621228497 -0.5 L 71.17798106142484 -0.5 Z"/><text text-anchor="middle" pointer-events="none" font-size="8px" fill="#000000" x="48.39673106142485" y="3" font-family="sans-serif">ACTED_IN</text></g><g class="relationship" transform="translate(138.88051889599785 310.8392298650575) rotate(358.7585109737706)"><path class="outline" fill="#A5ABB6" stroke="none" d="M 25 0.5 L 40.73117078984346 0.5 L 40.73117078984346 -0.5 L 25 -0.5 Z M 86.29367078984346 0.5 L 102.02484157968692 0.5 L 102.02484157968692 3.5 L 109.02484157968692 0 L 102.02484157968692 -3.5 L 102.02484157968692 -0.5 L 86.29367078984346 -0.5 Z"/><text text-anchor="middle" pointer-events="none" font-size="8px" fill="#000000" x="63.51242078984346" y="3" font-family="sans-serif">ACTED_IN</text></g><g class="relationship" transform="translate(138.88051889599785 310.8392298650575) rotate(508.4378286082267)"><path class="outline" fill="#A5ABB6" stroke="none" d="M 25 0.5 L 28.502333369038084 0.5 L 28.502333369038084 -0.5 L 25 -0.5 Z M 74.06483336903808 0.5 L 77.56716673807617 0.5 L 77.56716673807617 3.5 L 84.56716673807617 0 L 77.56716673807617 -3.5 L 77.56716673807617 -0.5 L 74.06483336903808 -0.5 Z"/><text text-anchor="middle" pointer-events="none" font-size="8px" fill="#000000" x="51.283583369038084" y="3" transform="rotate(180 51.283583369038084 0)" font-family="sans-serif">ACTED_IN</text></g><g class="relationship" transform="translate(138.88051889599785 310.8392298650575) rotate(488.07143558154735)"><path class="outline" fill="#A5ABB6" stroke="none" d="M 25 0.5 L 48.145254349916414 0.5 L 48.145254349916414 -0.5 L 25 -0.5 Z M 93.70775434991641 0.5 L 116.85300869983283 0.5 L 116.85300869983283 3.5 L 123.85300869983283 0 L 116.85300869983283 -3.5 L 116.85300869983283 -0.5 L 93.70775434991641 -0.5 Z"/><text text-anchor="middle" pointer-events="none" font-size="8px" fill="#000000" x="70.92650434991641" y="3" transform="rotate(180 70.92650434991641 0)" font-family="sans-serif">ACTED_IN</text></g><g class="relationship" transform="translate(138.88051889599785 310.8392298650575) rotate(330.7103347938619)"><path class="outline" fill="#A5ABB6" stroke="none" d="M 25 0.5 L 44.22783575172278 0.5 L 44.22783575172278 -0.5 L 25 -0.5 Z M 89.79033575172278 0.5 L 109.01817150344556 0.5 L 109.01817150344556 3.5 L 116.01817150344556 0 L 109.01817150344556 -3.5 L 109.01817150344556 -0.5 L 89.79033575172278 -0.5 Z"/><text text-anchor="middle" pointer-events="none" font-size="8px" fill="#000000" x="67.00908575172278" y="3" font-family="sans-serif">ACTED_IN</text></g><g class="relationship" transform="translate(138.88051889599785 310.8392298650575) rotate(302.508407089586)"><path class="outline" fill="#A5ABB6" stroke="none" d="M 25 0.5 L 40.37044463370658 0.5 L 40.37044463370658 -0.5 L 25 -0.5 Z M 85.93294463370658 0.5 L 101.30338926741317 0.5 L 101.30338926741317 3.5 L 108.30338926741317 0 L 101.30338926741317 -3.5 L 101.30338926741317 -0.5 L 85.93294463370658 -0.5 Z"/><text text-anchor="middle" pointer-events="none" font-size="8px" fill="#000000" x="63.15169463370658" y="3" font-family="sans-serif">ACTED_IN</text></g><g class="relationship" transform="translate(138.88051889599785 310.8392298650575) rotate(263.4079717107417)"><path class="outline" fill="#A5ABB6" stroke="none" d="M 25 0.5 L 33.68119314419607 0.5 L 33.68119314419607 -0.5 L 25 -0.5 Z M 79.24369314419607 0.5 L 87.92488628839214 0.5 L 87.92488628839214 3.5 L 94.92488628839214 0 L 87.92488628839214 -3.5 L 87.92488628839214 -0.5 L 79.24369314419607 -0.5 Z"/><text text-anchor="middle" pointer-events="none" font-size="8px" fill="#000000" x="56.46244314419607" y="3" transform="rotate(180 56.46244314419607 0)" font-family="sans-serif">ACTED_IN</text></g><g class="relationship" transform="translate(138.88051889599785 310.8392298650575) rotate(180.5900542312679)"><path class="outline" fill="#A5ABB6" stroke="none" d="M 25 0.5 L 26.906138794417593 0.5 L 26.906138794417593 -0.5 L 25 -0.5 Z M 72.46863879441759 0.5 L 74.37477758883519 0.5 L 74.37477758883519 3.5 L 81.37477758883519 0 L 74.37477758883519 -3.5 L 74.37477758883519 -0.5 L 72.46863879441759 -0.5 Z"/><text text-anchor="middle" pointer-events="none" font-size="8px" fill="#000000" x="49.68738879441759" y="3" transform="rotate(180 49.68738879441759 0)" font-family="sans-serif">ACTED_IN</text></g><g class="relationship" transform="translate(142.05013195881705 410.8453435142899) rotate(222.70625238145016)"><path class="outline" fill="#A5ABB6" stroke="none" d="M 25 0.5 L 48.25107155215069 0.5 L 48.25107155215069 -0.5 L 25 -0.5 Z M 93.81357155215069 0.5 L 117.06464310430138 0.5 L 117.06464310430138 3.5 L 124.06464310430138 0 L 117.06464310430138 -3.5 L 117.06464310430138 -0.5 L 93.81357155215069 -0.5 Z"/><text text-anchor="middle" pointer-events="none" font-size="8px" fill="#000000" x="71.03232155215069" y="3" transform="rotate(180 71.03232155215069 0)" font-family="sans-serif">ACTED_IN</text></g><g class="relationship" transform="translate(-62.99576306274365 347.21356953197045) rotate(338.5786979163013)"><path class="outline" fill="#A5ABB6" stroke="none" d="M 25 0.5 L 25.015926782044417 0.5 L 25.015926782044417 -0.5 L 25 -0.5 Z M 70.57842678204442 0.5 L 70.59435356408883 0.5 L 70.59435356408883 3.5 L 77.59435356408883 0 L 70.59435356408883 -3.5 L 70.59435356408883 -0.5 L 70.57842678204442 -0.5 Z"/><text text-anchor="middle" pointer-events="none" font-size="8px" fill="#000000" x="47.79717678204442" y="3" font-family="sans-serif">ACTED_IN</text></g><g class="relationship" transform="translate(-55.336882350075925 411.2430821731863) rotate(310.8763823403965)"><path class="outline" fill="#A5ABB6" stroke="none" d="M 25 0.5 L 40.83698503913949 0.5 L 40.83698503913949 -0.5 L 25 -0.5 Z M 86.39948503913949 0.5 L 102.23647007827898 0.5 L 102.23647007827898 3.5 L 109.23647007827898 0 L 102.23647007827898 -3.5 L 102.23647007827898 -0.5 L 86.39948503913949 -0.5 Z"/><text text-anchor="middle" pointer-events="none" font-size="8px" fill="#000000" x="63.61823503913949" y="3" font-family="sans-serif">ACTED_IN</text></g><g class="relationship" transform="translate(78.00930228971689 -74.3618118381217) rotate(189.63210591263766)"><path class="outline" fill="#A5ABB6" stroke="none" d="M 25 0.5 L 26.649786679963384 0.5 L 26.649786679963384 -0.5 L 25 -0.5 Z M 67.76306792996338 0.5 L 69.41285460992677 0.5 L 69.41285460992677 3.5 L 76.41285460992677 0 L 69.41285460992677 -3.5 L 69.41285460992677 -0.5 L 67.76306792996338 -0.5 Z"/><text text-anchor="middle" pointer-events="none" font-size="8px" fill="#000000" x="47.206427304963384" y="3" transform="rotate(180 47.206427304963384 0)" font-family="sans-serif">ACTED…</text></g><g class="relationship" transform="translate(78.00930228971689 -74.3618118381217) rotate(211.17845497372082)"><path class="outline" fill="#A5ABB6" stroke="none" d="M 25 0.5 L 44.33131431171864 0.5 L 44.33131431171864 -0.5 L 25 -0.5 Z M 89.89381431171864 0.5 L 109.22512862343729 0.5 L 109.22512862343729 3.5 L 116.22512862343729 0 L 109.22512862343729 -3.5 L 109.22512862343729 -0.5 L 89.89381431171864 -0.5 Z"/><text text-anchor="middle" pointer-events="none" font-size="8px" fill="#000000" x="67.11256431171864" y="3" transform="rotate(180 67.11256431171864 0)" font-family="sans-serif">ACTED_IN</text></g><g class="relationship" transform="translate(72.70430578346001 -152.1383950342147) rotate(507.28896801621215)"><path class="outline" fill="#A5ABB6" stroke="none" d="M 25 0.5 L 29.980590072172497 0.5 L 29.980590072172497 -0.5 L 25 -0.5 Z M 75.5430900721725 0.5 L 80.523680144345 0.5 L 80.523680144345 3.5 L 87.523680144345 0 L 80.523680144345 -3.5 L 80.523680144345 -0.5 L 75.5430900721725 -0.5 Z"/><text text-anchor="middle" pointer-events="none" font-size="8px" fill="#000000" x="52.7618400721725" y="3" transform="rotate(180 52.7618400721725 0)" font-family="sans-serif">ACTED_IN</text></g><g class="relationship" transform="translate(72.70430578346001 -152.1383950342147) rotate(537.6882339434478)"><path class="outline" fill="#A5ABB6" stroke="none" d="M 25 0.5 L 31.526514096937547 0.5 L 31.526514096937547 -0.5 L 25 -0.5 Z M 77.08901409693755 0.5 L 83.6155281938751 0.5 L 83.6155281938751 3.5 L 90.6155281938751 0 L 83.6155281938751 -3.5 L 83.6155281938751 -0.5 L 77.08901409693755 -0.5 Z"/><text text-anchor="middle" pointer-events="none" font-size="8px" fill="#000000" x="54.30776409693755" y="3" transform="rotate(180 54.30776409693755 0)" font-family="sans-serif">ACTED_IN</text></g><g class="relationship" transform="translate(72.70430578346001 -152.1383950342147) rotate(381.4818500394515)"><path class="outline" fill="#A5ABB6" stroke="none" d="M 25 0.5 L 40.49897931084038 0.5 L 40.49897931084038 -0.5 L 25 -0.5 Z M 86.06147931084038 0.5 L 101.56045862168077 0.5 L 101.56045862168077 3.5 L 108.56045862168077 0 L 101.56045862168077 -3.5 L 101.56045862168077 -0.5 L 86.06147931084038 -0.5 Z"/><text text-anchor="middle" pointer-events="none" font-size="8px" fill="#000000" x="63.28022931084038" y="3" font-family="sans-serif">ACTED_IN</text></g><g class="relationship" transform="translate(72.70430578346001 -152.1383950342147) rotate(308.8158541917477)"><path class="outline" fill="#A5ABB6" stroke="none" d="M 25 0.5 L 36.11251447071094 0.5 L 36.11251447071094 -0.5 L 25 -0.5 Z M 81.67501447071095 0.5 L 92.78752894142188 0.5 L 92.78752894142188 3.5 L 99.78752894142188 0 L 92.78752894142188 -3.5 L 92.78752894142188 -0.5 L 81.67501447071095 -0.5 Z"/><text text-anchor="middle" pointer-events="none" font-size="8px" fill="#000000" x="58.89376447071094" y="3" font-family="sans-serif">ACTED_IN</text></g><g class="relationship" transform="translate(72.70430578346001 -152.1383950342147) rotate(347.11116164676105)"><path class="outline" fill="#A5ABB6" stroke="none" d="M 25 0.5 L 40.05707434107029 0.5 L 40.05707434107029 -0.5 L 25 -0.5 Z M 85.61957434107029 0.5 L 100.67664868214058 0.5 L 100.67664868214058 3.5 L 107.67664868214058 0 L 100.67664868214058 -3.5 L 100.67664868214058 -0.5 L 85.61957434107029 -0.5 Z"/><text text-anchor="middle" pointer-events="none" font-size="8px" fill="#000000" x="62.83832434107029" y="3" font-family="sans-serif">ACTED_IN</text></g><g class="relationship" transform="translate(72.70430578346001 -152.1383950342147) rotate(260.85860862691766)"><path class="outline" fill="#A5ABB6" stroke="none" d="M 25 0.5 L 34.135522408257465 0.5 L 34.135522408257465 -0.5 L 25 -0.5 Z M 79.69802240825746 0.5 L 88.83354481651493 0.5 L 88.83354481651493 3.5 L 95.83354481651493 0 L 88.83354481651493 -3.5 L 88.83354481651493 -0.5 L 79.69802240825746 -0.5 Z"/><text text-anchor="middle" pointer-events="none" font-size="8px" fill="#000000" x="56.916772408257465" y="3" transform="rotate(180 56.916772408257465 0)" font-family="sans-serif">ACTED_IN</text></g><g class="relationship" transform="translate(-94.09568116955035 -17.870846844745802) rotate(291.5865133469099)"><path class="outline" fill="#A5ABB6" stroke="none" d="M 25 0.5 L 43.40855971700195 0.5 L 43.40855971700195 -0.5 L 25 -0.5 Z M 88.97105971700195 0.5 L 107.3796194340039 0.5 L 107.3796194340039 3.5 L 114.3796194340039 0 L 107.3796194340039 -3.5 L 107.3796194340039 -0.5 L 88.97105971700195 -0.5 Z"/><text text-anchor="middle" pointer-events="none" font-size="8px" fill="#000000" x="66.18980971700195" y="3" font-family="sans-serif">ACTED_IN</text></g><g class="relationship" transform="translate(-94.09568116955035 -17.870846844745802) rotate(314.47354813879315)"><path class="outline" fill="#A5ABB6" stroke="none" d="M 25 0.5 L 25.191682067080542 0.5 L 25.191682067080542 -0.5 L 25 -0.5 Z M 70.75418206708054 0.5 L 70.94586413416108 0.5 L 70.94586413416108 3.5 L 77.94586413416108 0 L 70.94586413416108 -3.5 L 70.94586413416108 -0.5 L 70.75418206708054 -0.5 Z"/><text text-anchor="middle" pointer-events="none" font-size="8px" fill="#000000" x="47.97293206708054" y="3" font-family="sans-serif">ACTED_IN</text></g><g class="relationship" transform="translate(-131.96693808671935 -82.04311786113216) rotate(183.0228670769282)"><path class="outline" fill="#A5ABB6" stroke="none" d="M 25 0.5 L 32.809855238492545 0.5 L 32.809855238492545 -0.5 L 25 -0.5 Z M 78.37235523849255 0.5 L 86.18221047698509 0.5 L 86.18221047698509 3.5 L 93.18221047698509 0 L 86.18221047698509 -3.5 L 86.18221047698509 -0.5 L 78.37235523849255 -0.5 Z"/><text text-anchor="middle" pointer-events="none" font-size="8px" fill="#000000" x="55.591105238492545" y="3" transform="rotate(180 55.591105238492545 0)" font-family="sans-serif">ACTED_IN</text></g><g class="relationship" transform="translate(-131.96693808671935 -82.04311786113216) rotate(355.1737027106451)"><path class="outline" fill="#A5ABB6" stroke="none" d="M 25 0.5 L 28.910972548621892 0.5 L 28.910972548621892 -0.5 L 25 -0.5 Z M 74.47347254862188 0.5 L 78.38444509724378 0.5 L 78.38444509724378 3.5 L 85.38444509724378 0 L 78.38444509724378 -3.5 L 78.38444509724378 -0.5 L 74.47347254862188 -0.5 Z"/><text text-anchor="middle" pointer-events="none" font-size="8px" fill="#000000" x="51.69222254862189" y="3" font-family="sans-serif">ACTED_IN</text></g><g class="relationship" transform="translate(-131.96693808671935 -82.04311786113216) rotate(323.72311273640656)"><path class="outline" fill="#A5ABB6" stroke="none" d="M 25 0.5 L 29.011144727087093 0.5 L 29.011144727087093 -0.5 L 25 -0.5 Z M 74.5736447270871 0.5 L 78.58478945417419 0.5 L 78.58478945417419 3.5 L 85.58478945417419 0 L 78.58478945417419 -3.5 L 78.58478945417419 -0.5 L 74.5736447270871 -0.5 Z"/><text text-anchor="middle" pointer-events="none" font-size="8px" fill="#000000" x="51.79239472708709" y="3" font-family="sans-serif">ACTED_IN</text></g><g class="relationship" transform="translate(-131.96693808671935 -82.04311786113216) rotate(489.5747477170013)"><path class="outline" fill="#A5ABB6" stroke="none" d="M 25 0.5 L 37.57072350960557 0.5 L 37.57072350960557 -0.5 L 25 -0.5 Z M 83.13322350960557 0.5 L 95.70394701921114 0.5 L 95.70394701921114 3.5 L 102.70394701921114 0 L 95.70394701921114 -3.5 L 95.70394701921114 -0.5 L 83.13322350960557 -0.5 Z"/><text text-anchor="middle" pointer-events="none" font-size="8px" fill="#000000" x="60.35197350960557" y="3" transform="rotate(180 60.35197350960557 0)" font-family="sans-serif">ACTED_IN</text></g><g class="relationship" transform="translate(72.70430578346001 -152.1383950342147) rotate(482.5019608189322)"><path class="outline" fill="#A5ABB6" stroke="none" d="M 25 0.5 L 43.35924177101734 0.5 L 43.35924177101734 -0.5 L 25 -0.5 Z M 88.92174177101734 0.5 L 107.28098354203468 0.5 L 107.28098354203468 3.5 L 114.28098354203468 0 L 107.28098354203468 -3.5 L 107.28098354203468 -0.5 L 88.92174177101734 -0.5 Z"/><text text-anchor="middle" pointer-events="none" font-size="8px" fill="#000000" x="66.14049177101734" y="3" transform="rotate(180 66.14049177101734 0)" font-family="sans-serif">ACTED_IN</text></g><g class="relationship" transform="translate(78.00930228971689 -74.3618118381217) rotate(513.6544551272759)"><path class="outline" fill="#A5ABB6" stroke="none" d="M 25 0.5 L 26.21688344496622 0.5 L 26.21688344496622 -0.5 L 25 -0.5 Z M 56.21688344496622 0.5 L 57.43376688993244 0.5 L 57.43376688993244 3.5 L 64.43376688993244 0 L 57.43376688993244 -3.5 L 57.43376688993244 -0.5 L 56.21688344496622 -0.5 Z"/><text text-anchor="middle" pointer-events="none" font-size="8px" fill="#000000" x="41.21688344496622" y="3" transform="rotate(180 41.21688344496622 0)" font-family="sans-serif">ACT…</text></g><g class="relationship" transform="translate(-94.09568116955035 -17.870846844745802) rotate(349.6459137122648)"><path class="outline" fill="#A5ABB6" stroke="none" d="M 25 0.5 L 25.5733501174289 0.5 L 25.5733501174289 -0.5 L 25 -0.5 Z M 60.9092876174289 0.5 L 61.4826377348578 0.5 L 61.4826377348578 3.5 L 68.4826377348578 0 L 61.4826377348578 -3.5 L 61.4826377348578 -0.5 L 60.9092876174289 -0.5 Z"/><text text-anchor="middle" pointer-events="none" font-size="8px" fill="#000000" x="43.2413188674289" y="3" font-family="sans-serif">ACTE…</text></g><g class="relationship" transform="translate(-131.96693808671935 -82.04311786113216) rotate(380.0450782236237)"><path class="outline" fill="#A5ABB6" stroke="none" d="M 25 0.5 L 42.82051385024762 0.5 L 42.82051385024762 -0.5 L 25 -0.5 Z M 88.38301385024762 0.5 L 106.20352770049524 0.5 L 106.20352770049524 3.5 L 113.20352770049524 0 L 106.20352770049524 -3.5 L 106.20352770049524 -0.5 L 88.38301385024762 -0.5 Z"/><text text-anchor="middle" pointer-events="none" font-size="8px" fill="#000000" x="65.60176385024762" y="3" font-family="sans-serif">ACTED_IN</text></g></g><g class="layer nodes"><g class="node" transform="translate(47.09128198825617,428.02265099145654)"><circle class="outline" cx="0" cy="0" r="25" fill="#57C7E3" stroke="#23b3d7" stroke-width="2px"/><text text-anchor="middle" pointer-events="none" font-family="sans-serif" dy="1.5625" font-size="25" fill="#FFFFFF"/><text text-anchor="middle" pointer-events="none" font-family="sans-serif" dy="1.5625" font-size="25" fill="#FFFFFF"/><text text-anchor="middle" pointer-events="none" font-family="sans-serif" dy="1.5625" font-size="25" fill="#FFFFFF"/><text text-anchor="middle" pointer-events="none" y="-5" font-size="10px" fill="#FFFFFF" font-family="sans-serif"> The</text><text text-anchor="middle" pointer-events="none" y="5" font-size="10px" fill="#FFFFFF" font-family="sans-serif"> Matrix</text><text text-anchor="middle" pointer-events="none" y="15" font-size="10px" fill="#FFFFFF" font-family="sans-serif"> Reloa…</text></g><g class="node" transform="translate(-62.99576306274365,347.21356953197045)"><circle class="outline" cx="0" cy="0" r="25" fill="#F79767" stroke="#f36924" stroke-width="2px"/><text text-anchor="middle" pointer-events="none" font-family="sans-serif" dy="1.5625" font-size="25" fill="#FFFFFF"/><text text-anchor="middle" pointer-events="none" font-family="sans-serif" dy="1.5625" font-size="25" fill="#FFFFFF"/><text text-anchor="middle" pointer-events="none" y="0" font-size="10px" fill="#FFFFFF" font-family="sans-serif"> Laurence</text><text text-anchor="middle" pointer-events="none" y="10" font-size="10px" fill="#FFFFFF" font-family="sans-serif"> Fishbur…</text></g><g class="node" transform="translate(45.52132711939137,368.18925460636166)"><circle class="outline" cx="0" cy="0" r="25" fill="#57C7E3" stroke="#23b3d7" stroke-width="2px"/><text text-anchor="middle" pointer-events="none" font-family="sans-serif" dy="1.5625" font-size="25" fill="#FFFFFF"/><text text-anchor="middle" pointer-events="none" font-family="sans-serif" dy="1.5625" font-size="25" fill="#FFFFFF"/><text text-anchor="middle" pointer-events="none" font-family="sans-serif" dy="1.5625" font-size="25" fill="#FFFFFF"/><text text-anchor="middle" pointer-events="none" y="-5" font-size="10px" fill="#FFFFFF" font-family="sans-serif"> The</text><text text-anchor="middle" pointer-events="none" y="5" font-size="10px" fill="#FFFFFF" font-family="sans-serif"> Matrix</text><text text-anchor="middle" pointer-events="none" y="15" font-size="10px" fill="#FFFFFF" font-family="sans-serif"> Revol…</text></g><g class="node" transform="translate(220.07186076048055,502.0949047074414)"><circle class="outline" cx="0" cy="0" r="25" fill="#57C7E3" stroke="#23b3d7" stroke-width="2px"/><text text-anchor="middle" pointer-events="none" font-family="sans-serif" dy="1.5625" font-size="25" fill="#FFFFFF"/><text text-anchor="middle" pointer-events="none" font-family="sans-serif" dy="1.5625" font-size="25" fill="#FFFFFF"/><text text-anchor="middle" pointer-events="none" y="0" font-size="10px" fill="#FFFFFF" font-family="sans-serif"> Cloud</text><text text-anchor="middle" pointer-events="none" y="10" font-size="10px" fill="#FFFFFF" font-family="sans-serif"> Atlas</text></g><g class="node" transform="translate(142.05013195881705,410.8453435142899)"><circle class="outline" cx="0" cy="0" r="25" fill="#F79767" stroke="#f36924" stroke-width="2px"/><text text-anchor="middle" pointer-events="none" font-family="sans-serif" dy="1.5625" font-size="25" fill="#FFFFFF"/><text text-anchor="middle" pointer-events="none" font-family="sans-serif" dy="1.5625" font-size="25" fill="#FFFFFF"/><text text-anchor="middle" pointer-events="none" y="0" font-size="10px" fill="#FFFFFF" font-family="sans-serif"> Hugo</text><text text-anchor="middle" pointer-events="none" y="10" font-size="10px" fill="#FFFFFF" font-family="sans-serif"> Weaving</text></g><g class="node" transform="translate(271.3111358726152,419.96755132739054)"><circle class="outline" cx="0" cy="0" r="25" fill="#57C7E3" stroke="#23b3d7" stroke-width="2px"/><text text-anchor="middle" pointer-events="none" font-family="sans-serif" dy="1.5625" font-size="25" fill="#FFFFFF"/><text text-anchor="middle" pointer-events="none" font-family="sans-serif" dy="1.5625" font-size="25" fill="#FFFFFF"/><text text-anchor="middle" pointer-events="none" y="0" font-size="10px" fill="#FFFFFF" font-family="sans-serif"> V for</text><text text-anchor="middle" pointer-events="none" y="10" font-size="10px" fill="#FFFFFF" font-family="sans-serif"> Vendetta</text></g><g class="node" transform="translate(-55.336882350075925,411.2430821731863)"><circle class="outline" cx="0" cy="0" r="25" fill="#F79767" stroke="#f36924" stroke-width="2px"/><text text-anchor="middle" pointer-events="none" font-family="sans-serif" dy="1.5625" font-size="25" fill="#FFFFFF"/><text text-anchor="middle" pointer-events="none" y="5" font-size="10px" fill="#FFFFFF" font-family="sans-serif"> Carrie-A…</text></g><g class="node" transform="translate(272.8738990194804,307.93539730375426)"><circle class="outline" cx="0" cy="0" r="25" fill="#57C7E3" stroke="#23b3d7" stroke-width="2px"/><text text-anchor="middle" pointer-events="none" font-family="sans-serif" dy="1.5625" font-size="25" fill="#FFFFFF"/><text text-anchor="middle" pointer-events="none" y="5" font-size="10px" fill="#FFFFFF" font-family="sans-serif"> Somethi…</text></g><g class="node" transform="translate(138.88051889599785,310.8392298650575)"><circle class="outline" cx="0" cy="0" r="25" fill="#F79767" stroke="#f36924" stroke-width="2px"/><text text-anchor="middle" pointer-events="none" font-family="sans-serif" dy="1.5625" font-size="25" fill="#FFFFFF"/><text text-anchor="middle" pointer-events="none" font-family="sans-serif" dy="1.5625" font-size="25" fill="#FFFFFF"/><text text-anchor="middle" pointer-events="none" y="0" font-size="10px" fill="#FFFFFF" font-family="sans-serif"> Keanu</text><text text-anchor="middle" pointer-events="none" y="10" font-size="10px" fill="#FFFFFF" font-family="sans-serif"> Reeves</text></g><g class="node" transform="translate(261.87057920630076,241.84959470843972)"><circle class="outline" cx="0" cy="0" r="25" fill="#57C7E3" stroke="#23b3d7" stroke-width="2px"/><text text-anchor="middle" pointer-events="none" font-family="sans-serif" dy="1.5625" font-size="25" fill="#FFFFFF"/><text text-anchor="middle" pointer-events="none" font-family="sans-serif" dy="1.5625" font-size="25" fill="#FFFFFF"/><text text-anchor="middle" pointer-events="none" font-family="sans-serif" dy="1.5625" font-size="25" fill="#FFFFFF"/><text text-anchor="middle" pointer-events="none" y="-5" font-size="10px" fill="#FFFFFF" font-family="sans-serif"> The</text><text text-anchor="middle" pointer-events="none" y="5" font-size="10px" fill="#FFFFFF" font-family="sans-serif"> Devil's</text><text text-anchor="middle" pointer-events="none" y="15" font-size="10px" fill="#FFFFFF" font-family="sans-serif"> Advoc…</text></g><g class="node" transform="translate(210.5208735309315,198.42280233793664)"><circle class="outline" cx="0" cy="0" r="25" fill="#57C7E3" stroke="#23b3d7" stroke-width="2px"/><text text-anchor="middle" pointer-events="none" font-family="sans-serif" dy="1.5625" font-size="25" fill="#FFFFFF"/><text text-anchor="middle" pointer-events="none" font-family="sans-serif" dy="1.5625" font-size="25" fill="#FFFFFF"/><text text-anchor="middle" pointer-events="none" y="0" font-size="10px" fill="#FFFFFF" font-family="sans-serif"> The</text><text text-anchor="middle" pointer-events="none" y="10" font-size="10px" fill="#FFFFFF" font-family="sans-serif"> Replac…</text></g><g class="node" transform="translate(125.1132692088953,191.70719728214235)"><circle class="outline" cx="0" cy="0" r="25" fill="#57C7E3" stroke="#23b3d7" stroke-width="2px"/><text text-anchor="middle" pointer-events="none" font-family="sans-serif" dy="1.5625" font-size="25" fill="#FFFFFF"/><text text-anchor="middle" pointer-events="none" font-family="sans-serif" dy="1.5625" font-size="25" fill="#FFFFFF"/><text text-anchor="middle" pointer-events="none" y="0" font-size="10px" fill="#FFFFFF" font-family="sans-serif"> Johnny</text><text text-anchor="middle" pointer-events="none" y="10" font-size="10px" fill="#FFFFFF" font-family="sans-serif"> Mnemo…</text></g><g class="node" transform="translate(32.51138214252554,309.7437603788283)"><circle class="outline" cx="0" cy="0" r="25" fill="#57C7E3" stroke="#23b3d7" stroke-width="2px"/><text text-anchor="middle" pointer-events="none" font-family="sans-serif" dy="1.5625" font-size="25" fill="#FFFFFF"/><text text-anchor="middle" pointer-events="none" font-family="sans-serif" dy="1.5625" font-size="25" fill="#FFFFFF"/><text text-anchor="middle" pointer-events="none" y="0" font-size="10px" fill="#FFFFFF" font-family="sans-serif"> The</text><text text-anchor="middle" pointer-events="none" y="10" font-size="10px" fill="#FFFFFF" font-family="sans-serif"> Matrix</text></g><g class="node" transform="translate(-21.973877783412927,-91.33033512679478)"><circle class="outline" cx="0" cy="0" r="25" fill="#57C7E3" stroke="#23b3d7" stroke-width="2px"/><text text-anchor="middle" pointer-events="none" font-family="sans-serif" dy="1.5625" font-size="25" fill="#FFFFFF"/><text text-anchor="middle" pointer-events="none" font-family="sans-serif" dy="1.5625" font-size="25" fill="#FFFFFF"/><text text-anchor="middle" pointer-events="none" font-family="sans-serif" dy="1.5625" font-size="25" fill="#FFFFFF"/><text text-anchor="middle" pointer-events="none" y="-5" font-size="10px" fill="#FFFFFF" font-family="sans-serif"> The</text><text text-anchor="middle" pointer-events="none" y="5" font-size="10px" fill="#FFFFFF" font-family="sans-serif"> Matrix</text><text text-anchor="middle" pointer-events="none" y="15" font-size="10px" fill="#FFFFFF" font-family="sans-serif"> Revol…</text></g><g class="node" transform="translate(78.00930228971689,-74.3618118381217)"><circle class="outline" cx="0" cy="0" r="25" fill="#F79767" stroke="#f36924" stroke-width="2px"/><text text-anchor="middle" pointer-events="none" font-family="sans-serif" dy="1.5625" font-size="25" fill="#FFFFFF"/><text text-anchor="middle" pointer-events="none" font-family="sans-serif" dy="1.5625" font-size="25" fill="#FFFFFF"/><text text-anchor="middle" pointer-events="none" y="0" font-size="10px" fill="#FFFFFF" font-family="sans-serif"> Laurence</text><text text-anchor="middle" pointer-events="none" y="10" font-size="10px" fill="#FFFFFF" font-family="sans-serif"> Fishbur…</text></g><g class="node" transform="translate(-42.81712671546037,-147.47481347642992)"><circle class="outline" cx="0" cy="0" r="25" fill="#57C7E3" stroke="#23b3d7" stroke-width="2px"/><text text-anchor="middle" pointer-events="none" font-family="sans-serif" dy="1.5625" font-size="25" fill="#FFFFFF"/><text text-anchor="middle" pointer-events="none" font-family="sans-serif" dy="1.5625" font-size="25" fill="#FFFFFF"/><text text-anchor="middle" pointer-events="none" font-family="sans-serif" dy="1.5625" font-size="25" fill="#FFFFFF"/><text text-anchor="middle" pointer-events="none" y="-5" font-size="10px" fill="#FFFFFF" font-family="sans-serif"> The</text><text text-anchor="middle" pointer-events="none" y="5" font-size="10px" fill="#FFFFFF" font-family="sans-serif"> Matrix</text><text text-anchor="middle" pointer-events="none" y="15" font-size="10px" fill="#FFFFFF" font-family="sans-serif"> Reloa…</text></g><g class="node" transform="translate(72.70430578346001,-152.1383950342147)"><circle class="outline" cx="0" cy="0" r="25" fill="#F79767" stroke="#f36924" stroke-width="2px"/><text text-anchor="middle" pointer-events="none" font-family="sans-serif" dy="1.5625" font-size="25" fill="#FFFFFF"/><text text-anchor="middle" pointer-events="none" font-family="sans-serif" dy="1.5625" font-size="25" fill="#FFFFFF"/><text text-anchor="middle" pointer-events="none" y="0" font-size="10px" fill="#FFFFFF" font-family="sans-serif"> Keanu</text><text text-anchor="middle" pointer-events="none" y="10" font-size="10px" fill="#FFFFFF" font-family="sans-serif"> Reeves</text></g><g class="node" transform="translate(196.9868028735334,-103.22769043604319)"><circle class="outline" cx="0" cy="0" r="25" fill="#57C7E3" stroke="#23b3d7" stroke-width="2px"/><text text-anchor="middle" pointer-events="none" font-family="sans-serif" dy="1.5625" font-size="25" fill="#FFFFFF"/><text text-anchor="middle" pointer-events="none" font-family="sans-serif" dy="1.5625" font-size="25" fill="#FFFFFF"/><text text-anchor="middle" pointer-events="none" y="0" font-size="10px" fill="#FFFFFF" font-family="sans-serif"> The</text><text text-anchor="middle" pointer-events="none" y="10" font-size="10px" fill="#FFFFFF" font-family="sans-serif"> Replac…</text></g><g class="node" transform="translate(150.92355433214365,-249.36841373104238)"><circle class="outline" cx="0" cy="0" r="25" fill="#57C7E3" stroke="#23b3d7" stroke-width="2px"/><text text-anchor="middle" pointer-events="none" font-family="sans-serif" dy="1.5625" font-size="25" fill="#FFFFFF"/><text text-anchor="middle" pointer-events="none" y="5" font-size="10px" fill="#FFFFFF" font-family="sans-serif"> Somethi…</text></g><g class="node" transform="translate(202.0381220528934,-181.73327761057587)"><circle class="outline" cx="0" cy="0" r="25" fill="#57C7E3" stroke="#23b3d7" stroke-width="2px"/><text text-anchor="middle" pointer-events="none" font-family="sans-serif" dy="1.5625" font-size="25" fill="#FFFFFF"/><text text-anchor="middle" pointer-events="none" font-family="sans-serif" dy="1.5625" font-size="25" fill="#FFFFFF"/><text text-anchor="middle" pointer-events="none" font-family="sans-serif" dy="1.5625" font-size="25" fill="#FFFFFF"/><text text-anchor="middle" pointer-events="none" y="-5" font-size="10px" fill="#FFFFFF" font-family="sans-serif"> The</text><text text-anchor="middle" pointer-events="none" y="5" font-size="10px" fill="#FFFFFF" font-family="sans-serif"> Devil's</text><text text-anchor="middle" pointer-events="none" y="15" font-size="10px" fill="#FFFFFF" font-family="sans-serif"> Advoc…</text></g><g class="node" transform="translate(53.50731748979473,-271.4372684294719)"><circle class="outline" cx="0" cy="0" r="25" fill="#57C7E3" stroke="#23b3d7" stroke-width="2px"/><text text-anchor="middle" pointer-events="none" font-family="sans-serif" dy="1.5625" font-size="25" fill="#FFFFFF"/><text text-anchor="middle" pointer-events="none" font-family="sans-serif" dy="1.5625" font-size="25" fill="#FFFFFF"/><text text-anchor="middle" pointer-events="none" y="0" font-size="10px" fill="#FFFFFF" font-family="sans-serif"> Johnny</text><text text-anchor="middle" pointer-events="none" y="10" font-size="10px" fill="#FFFFFF" font-family="sans-serif"> Mnemo…</text></g><g class="node" transform="translate(-94.09568116955035,-17.870846844745802)"><circle class="outline" cx="0" cy="0" r="25" fill="#F79767" stroke="#f36924" stroke-width="2px"/><text text-anchor="middle" pointer-events="none" font-family="sans-serif" dy="1.5625" font-size="25" fill="#FFFFFF"/><text text-anchor="middle" pointer-events="none" y="5" font-size="10px" fill="#FFFFFF" font-family="sans-serif"> Carrie-A…</text></g><g class="node" transform="translate(-249.98470601152675,-88.275398926096)"><circle class="outline" cx="0" cy="0" r="25" fill="#57C7E3" stroke="#23b3d7" stroke-width="2px"/><text text-anchor="middle" pointer-events="none" font-family="sans-serif" dy="1.5625" font-size="25" fill="#FFFFFF"/><text text-anchor="middle" pointer-events="none" font-family="sans-serif" dy="1.5625" font-size="25" fill="#FFFFFF"/><text text-anchor="middle" pointer-events="none" y="0" font-size="10px" fill="#FFFFFF" font-family="sans-serif"> V for</text><text text-anchor="middle" pointer-events="none" y="10" font-size="10px" fill="#FFFFFF" font-family="sans-serif"> Vendetta</text></g><g class="node" transform="translate(-131.96693808671935,-82.04311786113216)"><circle class="outline" cx="0" cy="0" r="25" fill="#F79767" stroke="#f36924" stroke-width="2px"/><text text-anchor="middle" pointer-events="none" font-family="sans-serif" dy="1.5625" font-size="25" fill="#FFFFFF"/><text text-anchor="middle" pointer-events="none" font-family="sans-serif" dy="1.5625" font-size="25" fill="#FFFFFF"/><text text-anchor="middle" pointer-events="none" y="0" font-size="10px" fill="#FFFFFF" font-family="sans-serif"> Hugo</text><text text-anchor="middle" pointer-events="none" y="10" font-size="10px" fill="#FFFFFF" font-family="sans-serif"> Weaving</text></g><g class="node" transform="translate(-213.32512229185429,16.39033146951367)"><circle class="outline" cx="0" cy="0" r="25" fill="#57C7E3" stroke="#23b3d7" stroke-width="2px"/><text text-anchor="middle" pointer-events="none" font-family="sans-serif" dy="1.5625" font-size="25" fill="#FFFFFF"/><text text-anchor="middle" pointer-events="none" font-family="sans-serif" dy="1.5625" font-size="25" fill="#FFFFFF"/><text text-anchor="middle" pointer-events="none" y="0" font-size="10px" fill="#FFFFFF" font-family="sans-serif"> Cloud</text><text text-anchor="middle" pointer-events="none" y="10" font-size="10px" fill="#FFFFFF" font-family="sans-serif"> Atlas</text></g><g class="node" transform="translate(-2.1353321709354054,-34.67256609961965)"><circle class="outline" cx="0" cy="0" r="25" fill="#57C7E3" stroke="#23b3d7" stroke-width="2px"/><text text-anchor="middle" pointer-events="none" font-family="sans-serif" dy="1.5625" font-size="25" fill="#FFFFFF"/><text text-anchor="middle" pointer-events="none" font-family="sans-serif" dy="1.5625" font-size="25" fill="#FFFFFF"/><text text-anchor="middle" pointer-events="none" y="0" font-size="10px" fill="#FFFFFF" font-family="sans-serif"> The</text><text text-anchor="middle" pointer-events="none" y="10" font-size="10px" fill="#FFFFFF" font-family="sans-serif"> Matrix</text></g></g></svg>