<svg xmlns="http://www.w3.org/2000/svg" width="610.5057373046875" height="575.4432983398438" viewBox="-192.363525390625 -185.89801025390625 610.5057373046875 575.4432983398438"><title>Neo4j Graph Visualization</title><desc>Created using Neo4j (http://www.neo4j.com/)</desc><g class="layer relationships"><g class="relationship" transform="translate(157.54337573417726 304.2393459524276) rotate(272.40728549716687)"><path class="outline" fill="#A5ABB6" stroke="none" d="M 24.018736134675446,6.953439040707552 L 24.277555179777966,5.987513214418485 A 111.60964332399907 111.60964332399907 0 0 0 28.301581029682733,6.9860225214034415 L 28.078816448424554,7.960894790645341 A 112.60964332399907 112.60964332399907 0 0 1 24.018736134675446,6.953439040707552 Z M 74.83037245548833,8.686582852754142 L 74.637972272637,7.705266303602556 A 111.60964332399907 111.60964332399907 0 0 0 78.69105019761895,6.832131599870702 L 78.00490535524935,3.9116512874409795 L 85.61986173368322,5.717873686413272 L 79.60590998744507,10.726105349776997 L 78.91976514507547,7.8056250373472755 A 112.60964332399907 112.60964332399907 0 0 1 74.83037245548833,8.686582852754142"/><text text-anchor="middle" pointer-events="none" font-size="8px" fill="#000000" x="51.42427524535314" y="13.277016214034049" font-family="sans-serif">DIRECTED</text></g><g class="relationship" transform="translate(157.54337573417726 304.2393459524276) rotate(272.40728549716687)"><path class="outline" fill="#A5ABB6" stroke="none" d="M 24.018736134675446,-6.953439040707552 L 24.277555179777966,-5.987513214418485 A 111.60964332399907 111.60964332399907 0 0 1 33.72467622987743,-8.084539544359757 L 33.55050149299723,-9.06925430561435 A 112.60964332399907 112.60964332399907 0 0 0 24.018736134675446,-6.953439040707552 Z M 69.32692334675288,-9.624583891656727 L 69.18339508060677,-8.634937673648949 A 111.60964332399907 111.60964332399907 0 0 1 78.69105019761895,-6.832131599870702 L 78.00490535524935,-3.9116512874409795 L 85.61986173368322,-5.717873686413272 L 79.60590998744507,-10.726105349776997 L 78.91976514507547,-7.8056250373472755 A 112.60964332399907 112.60964332399907 0 0 0 69.32692334675288,-9.624583891656727"/><text text-anchor="middle" pointer-events="none" font-size="8px" fill="#000000" x="51.42427524535311" y="-7.277016214034049" font-family="sans-serif">WROTE</text></g><g class="relationship" transform="translate(259.54535740568815 244.41699714312733) rotate(207.19511257087402)"><path class="outline" fill="#A5ABB6" stroke="none" d="M 24.018736134675446,6.953439040707552 L 24.277555179777966,5.987513214418485 A 110.67047591278178 110.67047591278178 0 0 0 33.49146760340291,8.039593180053771 L 33.315903937367224,9.024061259357566 A 111.67047591278178 111.67047591278178 0 0 1 24.018736134675446,6.953439040707552 Z M 69.09105304864956,9.581618893025876 L 68.94625317348189,8.592157930606731 A 110.67047591278178 110.67047591278178 0 0 0 78.2196386994966,6.82820350333494 L 77.53386076963024,3.9076370118973283 L 85.14859016782876,5.714816082219694 L 79.13400927265174,10.72229215858509 L 78.44823134278538,7.801725667147478 A 111.67047591278178 111.67047591278178 0 0 1 69.09105304864956,9.581618893025876"/><text text-anchor="middle" pointer-events="none" font-size="8px" fill="#000000" x="51.188794577626645" y="13.245019378559434" transform="rotate(180 51.188794577626645 10.245019378559434)" font-family="sans-serif">WROTE</text></g><g class="relationship" transform="translate(259.54535740568815 244.41699714312733) rotate(207.19511257087402)"><path class="outline" fill="#A5ABB6" stroke="none" d="M 24.018736134675446,-6.953439040707552 L 24.277555179777966,-5.987513214418485 A 110.67047591278178 110.67047591278178 0 0 1 28.070373823129692,-6.932335485956642 L 27.845826055999634,-7.906798569032077 A 111.67047591278178 111.67047591278178 0 0 0 24.018736134675446,-6.953439040707552 Z M 74.59329102021354,-8.635360338666189 L 74.39921905296794,-7.654373044390965 A 110.67047591278178 110.67047591278178 0 0 1 78.2196386994966,-6.82820350333494 L 77.53386076963024,-3.9076370118973283 L 85.14859016782876,-5.714816082219694 L 79.13400927265174,-10.72229215858509 L 78.44823134278538,-7.801725667147478 A 111.67047591278178 111.67047591278178 0 0 0 74.59329102021354,-8.635360338666189"/><text text-anchor="middle" pointer-events="none" font-size="8px" fill="#000000" x="51.18879457762661" y="-7.245019378559434" transform="rotate(180 51.18879457762661 -10.245019378559434)" font-family="sans-serif">DIRECTED</text></g><g class="relationship" transform="translate(389.14223696422545 112.90134506328283) rotate(213.2443681725714)"><path class="outline" fill="#A5ABB6" stroke="none" d="M 21.40063509461097,12.933012701892217 L 21.90063509461097,12.06698729810778 A 56.48475134614529 56.48475134614529 0 0 0 23.754473186176934,13.0914458926758 L 23.287293337587453,13.97560820191088 A 57.48475134614529 57.48475134614529 0 0 1 21.40063509461097,12.933012701892217 Z M 73.71876144532312,15.577618784851097 L 73.30863962822283,14.66558803145604 A 56.48475134614529 56.48475134614529 0 0 0 75.22376061054895,13.760854532142933 L 73.89167986777463,11.072814187443878 L 81.71786820530913,11.10067285645269 L 76.99986826758138,17.344908325075004 L 75.66778752480705,14.65686798037595 A 57.48475134614529 57.48475134614529 0 0 1 73.71876144532312,15.577618784851097"/><text text-anchor="middle" pointer-events="none" font-size="8px" fill="#000000" x="48.33374061900223" y="23.105779578138836" transform="rotate(180 48.33374061900223 20.105779578138836)" font-family="sans-serif">PRODUCED</text></g><g class="relationship" transform="translate(389.14223696422545 112.90134506328283) rotate(213.2443681725714)"><path class="outline" fill="#A5ABB6" stroke="none" d="M 25 0.5 L 25.113789705567292 0.5 L 25.113789705567292 -0.5 L 25 -0.5 Z M 72.00441470556729 0.5 L 72.11820441113458 0.5 L 72.11820441113458 3.5 L 79.11820441113458 0 L 72.11820441113458 -3.5 L 72.11820441113458 -0.5 L 72.00441470556729 -0.5 Z"/><text text-anchor="middle" pointer-events="none" font-size="8px" fill="#000000" x="48.55910220556729" y="3" transform="rotate(180 48.55910220556729 0)" font-family="sans-serif">DIRECTED</text></g><g class="relationship" transform="translate(389.14223696422545 112.90134506328283) rotate(213.2443681725714)"><path class="outline" fill="#A5ABB6" stroke="none" d="M 21.40063509461097,-12.933012701892217 L 21.90063509461097,-12.06698729810778 A 56.48475134614529 56.48475134614529 0 0 1 31.00596143013786,-16.293905806025407 L 30.66716115428515,-17.234764123245448 A 57.48475134614529 57.48475134614529 0 0 0 21.40063509461097,-12.933012701892217 Z M 66.14691988266244,-18.36181735202718 L 65.86851719777283,-17.401352909662833 A 56.48475134614529 56.48475134614529 0 0 1 75.22376061054895,-13.760854532142933 L 73.89167986777463,-11.072814187443878 L 81.71786820530913,-11.10067285645269 L 76.99986826758138,-17.344908325075004 L 75.66778752480705,-14.65686798037595 A 57.48475134614529 57.48475134614529 0 0 0 66.14691988266244,-18.36181735202718"/><text text-anchor="middle" pointer-events="none" font-size="8px" fill="#000000" x="48.333740619002214" y="-17.105779578138836" transform="rotate(180 48.333740619002214 -20.105779578138836)" font-family="sans-serif">WROTE</text></g><g class="relationship" transform="translate(278.63742091229597 -118.03400111918718) rotate(528.5577875306501)"><path class="outline" fill="#A5ABB6" stroke="none" d="M 21.40063509461097,12.933012701892217 L 21.90063509461097,12.06698729810778 A 55.255217270684156 55.255217270684156 0 0 0 23.20916372372073,12.798977181156438 L 22.732845263559756,13.678250019648495 A 56.255217270684156 56.255217270684156 0 0 1 21.40063509461097,12.933012701892217 Z M 73.0949979286103,15.295457833735433 L 72.67607226549782,14.38743730049525 A 55.255217270684156 55.255217270684156 0 0 0 74.0288673522053,13.740906701477984 L 72.69864236174539,11.051947520910918 L 80.52480960527177,11.085208253832677 L 75.80250067281852,17.326185608900737 L 74.47227568235861,14.63722642833367 A 56.255217270684156 56.255217270684156 0 0 1 73.0949979286103,15.295457833735433"/><text text-anchor="middle" pointer-events="none" font-size="8px" fill="#000000" x="47.73877851022107" y="22.94105885426862" transform="rotate(180 47.73877851022107 19.94105885426862)" font-family="sans-serif">PRODUCED</text></g><g class="relationship" transform="translate(278.63742091229597 -118.03400111918718) rotate(528.5577875306501)"><path class="outline" fill="#A5ABB6" stroke="none" d="M 25 0.5 L 26.077729513331988 0.5 L 26.077729513331988 -0.5 L 25 -0.5 Z M 69.85507326333199 0.5 L 70.93280277666398 0.5 L 70.93280277666398 3.5 L 77.93280277666398 0 L 70.93280277666398 -3.5 L 70.93280277666398 -0.5 L 69.85507326333199 -0.5 Z"/><text text-anchor="middle" pointer-events="none" font-size="8px" fill="#000000" x="47.96640138833199" y="3" transform="rotate(180 47.96640138833199 0)" font-family="sans-serif">DIRECT…</text></g><g class="relationship" transform="translate(278.63742091229597 -118.03400111918718) rotate(528.5577875306501)"><path class="outline" fill="#A5ABB6" stroke="none" d="M 21.40063509461097,-12.933012701892217 L 21.90063509461097,-12.06698729810778 A 55.255217270684156 55.255217270684156 0 0 1 30.430463679248245,-16.064481870109354 L 30.084835139645392,-17.002853285174837 A 56.255217270684156 56.255217270684156 0 0 0 21.40063509461097,-12.933012701892217 Z M 65.54485796372683,-18.14153030679074 L 65.26014456271538,-17.182917622082 A 55.255217270684156 55.255217270684156 0 0 1 74.0288673522053,-13.740906701477984 L 72.69864236174539,-11.051947520910918 L 80.52480960527177,-11.085208253832677 L 75.80250067281852,-17.326185608900737 L 74.47227568235861,-14.63722642833367 A 56.255217270684156 56.255217270684156 0 0 0 65.54485796372683,-18.14153030679074"/><text text-anchor="middle" pointer-events="none" font-size="8px" fill="#000000" x="47.73877851022108" y="-16.94105885426862" transform="rotate(180 47.73877851022108 -19.94105885426862)" font-family="sans-serif">WROTE</text></g><g class="relationship" transform="translate(2.406219933552713 -156.8980130350564) rotate(499.42683854743757)"><path class="outline" fill="#A5ABB6" stroke="none" d="M 24.018736134675446,-6.953439040707552 L 24.277555179777966,-5.987513214418485 A 103.88277671267171 103.88277671267171 0 0 1 31.80951159655836,-7.708258569313912 L 31.623196932404504,-8.69074869441505 A 104.88277671267171 104.88277671267171 0 0 0 24.018736134675446,-6.953439040707552 Z M 67.38773174648625,-9.264918721445497 L 67.2330511020199,-8.276954198687989 A 103.88277671267171 103.88277671267171 0 0 1 74.8163620501918,-6.798871960106597 L 74.13332392161557,-3.8776634918676245 L 81.74635483084543,-5.6919844048018975 L 75.7270795549601,-10.693816584425228 L 75.04404142638387,-7.772608116186255 A 104.88277671267171 104.88277671267171 0 0 0 67.38773174648625,-9.264918721445497"/><text text-anchor="middle" pointer-events="none" font-size="8px" fill="#000000" x="49.488833014792945" y="-7.013783969235831" transform="rotate(180 49.488833014792945 -10.013783969235831)" font-family="sans-serif">WROTE</text></g><g class="relationship" transform="translate(2.406219933552713 -156.8980130350564) rotate(499.42683854743757)"><path class="outline" fill="#A5ABB6" stroke="none" d="M 24.018736134675446,6.953439040707552 L 24.277555179777966,5.987513214418485 A 103.88277671267171 103.88277671267171 0 0 0 26.40441293682267,6.533377991040808 L 26.16606752386927,7.504558439837055 A 104.88277671267171 104.88277671267171 0 0 1 24.018736134675446,6.953439040707552 Z M 72.88012567051676,8.25451400806108 L 72.67307804935339,7.276183142468767 A 103.88277671267171 103.88277671267171 0 0 0 74.8163620501918,6.798871960106597 L 74.13332392161557,3.8776634918676245 L 81.74635483084543,5.6919844048018975 L 75.7270795549601,10.693816584425228 L 75.04404142638387,7.772608116186255 A 104.88277671267171 104.88277671267171 0 0 1 72.88012567051676,8.25451400806108"/><text text-anchor="middle" pointer-events="none" font-size="8px" fill="#000000" x="49.48883301479299" y="13.013783969235845" transform="rotate(180 49.48883301479299 10.013783969235845)" font-family="sans-serif">DIRECTED</text></g><g class="relationship" transform="translate(-5.930079607287892 -6.868300349852475) rotate(228.2785066916606)"><path class="outline" fill="#A5ABB6" stroke="none" d="M 24.018736134675446,-6.953439040707552 L 24.277555179777966,-5.987513214418485 A 108.81764142098592 108.81764142098592 0 0 1 33.0317175903032,-7.950308401776269 L 32.853346552492596,-8.934271700314568 A 109.81764142098592 109.81764142098592 0 0 0 24.018736134675446,-6.953439040707552 Z M 68.6258545245074,-9.496274339265923 L 68.47848092321324,-8.5071934418457 A 108.81764142098592 108.81764142098592 0 0 1 77.28998064084196,-6.8203629276574285 L 76.60493507946893,-3.899624565728528 L 84.21921107890489,-5.708713011441857 L 78.20337472267266,-10.71468074356263 L 77.51832916129963,-7.793942381633729 A 109.81764142098592 109.81764142098592 0 0 0 68.6258545245074,-9.496274339265923"/><text text-anchor="middle" pointer-events="none" font-size="8px" fill="#000000" x="50.72441444281016" y="-7.181896112774908" transform="rotate(180 50.72441444281016 -10.181896112774908)" font-family="sans-serif">WROTE</text></g><g class="relationship" transform="translate(-5.930079607287892 -6.868300349852475) rotate(228.2785066916606)"><path class="outline" fill="#A5ABB6" stroke="none" d="M 24.018736134675446,6.953439040707552 L 24.277555179777966,5.987513214418485 A 108.81764142098592 108.81764142098592 0 0 0 27.614714540132418,6.825386651387575 L 27.386562943035354,7.799012271809545 A 109.81764142098592 109.81764142098592 0 0 1 24.018736134675446,6.953439040707552 Z M 74.12560229072469,8.533304188831465 L 73.92814795836534,7.552992102487266 A 108.81764142098592 108.81764142098592 0 0 0 77.28998064084196,6.8203629276574285 L 76.60493507946893,3.899624565728528 L 84.21921107890489,5.708713011441857 L 78.20337472267266,10.71468074356263 L 77.51832916129963,7.793942381633729 A 109.81764142098592 109.81764142098592 0 0 1 74.12560229072469,8.533304188831465"/><text text-anchor="middle" pointer-events="none" font-size="8px" fill="#000000" x="50.72441444281015" y="13.181896112774908" transform="rotate(180 50.72441444281015 10.181896112774908)" font-family="sans-serif">DIRECTED</text></g><g class="relationship" transform="translate(-163.3635300420625 79.3902166220181) rotate(447.8619515818987)"><path class="outline" fill="#A5ABB6" stroke="none" d="M 21.40063509461097,12.933012701892217 L 21.90063509461097,12.06698729810778 A 56.17368899911004 56.17368899911004 0 0 0 23.616193196895818,13.017921689542945 L 23.146733439718613,13.900875559454114 A 57.17368899911004 57.17368899911004 0 0 1 21.40063509461097,12.933012701892217 Z M 73.56110467077843,15.506715274308462 L 73.14878870010564,14.59567436396022 A 56.17368899911004 56.17368899911004 0 0 0 74.92138758893044,13.755847597021615 L 73.58977264041818,11.067576474367 L 81.41595603320991,11.096791237602119 L 76.69687418694679,17.340209093894433 L 75.36525923843452,14.65193797123982 A 57.17368899911004 57.17368899911004 0 0 1 73.56110467077843,15.506715274308462"/><text text-anchor="middle" pointer-events="none" font-size="8px" fill="#000000" x="48.18317807098462" y="23.06410584227011" font-family="sans-serif">PRODUCED</text></g><g class="relationship" transform="translate(-163.3635300420625 79.3902166220181) rotate(447.8619515818987)"><path class="outline" fill="#A5ABB6" stroke="none" d="M 25 0.5 L 30.522388944332505 0.5 L 30.522388944332505 -0.5 L 25 -0.5 Z M 66.2958264443325 0.5 L 71.81821538866501 0.5 L 71.81821538866501 3.5 L 78.81821538866501 0 L 71.81821538866501 -3.5 L 71.81821538866501 -0.5 L 66.2958264443325 -0.5 Z"/><text text-anchor="middle" pointer-events="none" font-size="8px" fill="#000000" x="48.409107694332505" y="3" font-family="sans-serif">WROTE</text></g><g class="relationship" transform="translate(-163.3635300420625 79.3902166220181) rotate(447.8619515818987)"><path class="outline" fill="#A5ABB6" stroke="none" d="M 21.40063509461097,-12.933012701892217 L 21.90063509461097,-12.06698729810778 A 56.17368899911004 56.17368899911004 0 0 1 25.780122554495488,-14.109255098625773 L 25.349184913208408,-15.01163680794945 A 57.17368899911004 57.17368899911004 0 0 0 21.40063509461097,-12.933012701892217 Z M 71.29242786421014,-16.47505849423375 L 70.91979232777702,-15.54708071595067 A 56.17368899911004 56.17368899911004 0 0 1 74.92138758893044,-13.755847597021615 L 73.58977264041818,-11.067576474367 L 81.41595603320991,-11.096791237602119 L 76.69687418694679,-17.340209093894433 L 75.36525923843452,-14.65193797123982 A 57.17368899911004 57.17368899911004 0 0 0 71.29242786421014,-16.47505849423375"/><text text-anchor="middle" pointer-events="none" font-size="8px" fill="#000000" x="48.18317807098463" y="-17.06410584227011" font-family="sans-serif">DIRECTED</text></g><g class="relationship" transform="translate(-11.03706494235494 257.0490301579353) rotate(458.4004737430753)"><path class="outline" fill="#A5ABB6" stroke="none" d="M 21.40063509461097,12.933012701892217 L 21.90063509461097,12.06698729810778 A 57.003576977020195 57.003576977020195 0 0 0 23.985579420017707,13.213391677258706 L 23.522155095369577,14.09952817652077 A 58.003576977020195 58.003576977020195 0 0 1 21.40063509461097,12.933012701892217 Z M 73.9815040809673,15.6951762207635 L 73.574993280656,14.781530244889765 A 57.003576977020195 57.003576977020195 0 0 0 75.72820376125065,13.76914668771427 L 74.39535160418309,11.08148876167526 L 82.22154761485295,11.107101308896437 L 77.50533997067409,17.35269058909962 L 76.17248781360652,14.66503266306061 A 58.003576977020195 58.003576977020195 0 0 1 73.9815040809673,15.6951762207635"/><text text-anchor="middle" pointer-events="none" font-size="8px" fill="#000000" x="48.58492832037815" y="23.175288863908364" transform="rotate(180 48.58492832037815 20.175288863908364)" font-family="sans-serif">PRODUCED</text></g><g class="relationship" transform="translate(-11.03706494235494 257.0490301579353) rotate(458.4004737430753)"><path class="outline" fill="#A5ABB6" stroke="none" d="M 25 0.5 L 30.92262974925569 0.5 L 30.92262974925569 -0.5 L 25 -0.5 Z M 66.69606724925569 0.5 L 72.61869699851138 0.5 L 72.61869699851138 3.5 L 79.61869699851138 0 L 72.61869699851138 -3.5 L 72.61869699851138 -0.5 L 66.69606724925569 -0.5 Z"/><text text-anchor="middle" pointer-events="none" font-size="8px" fill="#000000" x="48.80934849925569" y="3" transform="rotate(180 48.80934849925569 0)" font-family="sans-serif">WROTE</text></g><g class="relationship" transform="translate(-11.03706494235494 257.0490301579353) rotate(458.4004737430753)"><path class="outline" fill="#A5ABB6" stroke="none" d="M 21.40063509461097,-12.933012701892217 L 21.90063509461097,-12.06698729810778 A 57.003576977020195 57.003576977020195 0 0 1 26.1568531322314,-14.2907516824583 L 25.731518938542752,-15.195788048401255 A 58.003576977020195 58.003576977020195 0 0 0 21.40063509461097,-12.933012701892217 Z M 71.70729088366897,-16.649654419283884 L 71.33998823767891,-15.719552937590251 A 57.003576977020195 57.003576977020195 0 0 1 75.72820376125065,-13.76914668771427 L 74.39535160418309,-11.08148876167526 L 82.22154761485295,-11.107101308896437 L 77.50533997067409,-17.35269058909962 L 76.17248781360652,-14.66503266306061 A 58.003576977020195 58.003576977020195 0 0 0 71.70729088366897,-16.649654419283884"/><text text-anchor="middle" pointer-events="none" font-size="8px" fill="#000000" x="48.584928320378125" y="-17.175288863908364" transform="rotate(180 48.584928320378125 -20.175288863908364)" font-family="sans-serif">DIRECTED</text></g></g><g class="layer nodes"><g class="node" transform="translate(157.54337573417726,304.2393459524276)"><circle class="outline" cx="0" cy="0" r="25" fill="#F79767" stroke="#f36924" stroke-width="2px"/><text text-anchor="middle" pointer-events="none" font-family="sans-serif" dy="1.5625" font-size="25" fill="#FFFFFF"/><text text-anchor="middle" pointer-events="none" font-family="sans-serif" dy="1.5625" font-size="25" fill="#FFFFFF"/><text text-anchor="middle" pointer-events="none" y="0" font-size="10px" fill="#FFFFFF" font-family="sans-serif"> Andy</text><text text-anchor="middle" pointer-events="none" y="10" font-size="10px" fill="#FFFFFF" font-family="sans-serif"> Wacho…</text></g><g class="node" transform="translate(162.16187467515243,194.37918580734552)"><circle class="outline" cx="0" cy="0" r="25" fill="#57C7E3" stroke="#23b3d7" stroke-width="2px"/><text text-anchor="middle" pointer-events="none" font-family="sans-serif" dy="1.5625" font-size="25" fill="#FFFFFF"/><text text-anchor="middle" pointer-events="none" font-family="sans-serif" dy="1.5625" font-size="25" fill="#FFFFFF"/><text text-anchor="middle" pointer-events="none" y="0" font-size="10px" fill="#FFFFFF" font-family="sans-serif"> Speed</text><text text-anchor="middle" pointer-events="none" y="10" font-size="10px" fill="#FFFFFF" font-family="sans-serif"> Racer</text></g><g class="node" transform="translate(259.54535740568815,244.41699714312733)"><circle class="outline" cx="0" cy="0" r="25" fill="#F79767" stroke="#f36924" stroke-width="2px"/><text text-anchor="middle" pointer-events="none" font-family="sans-serif" dy="1.5625" font-size="25" fill="#FFFFFF"/><text text-anchor="middle" pointer-events="none" font-family="sans-serif" dy="1.5625" font-size="25" fill="#FFFFFF"/><text text-anchor="middle" pointer-events="none" y="0" font-size="10px" fill="#FFFFFF" font-family="sans-serif"> Lana</text><text text-anchor="middle" pointer-events="none" y="10" font-size="10px" fill="#FFFFFF" font-family="sans-serif"> Wacho…</text></g><g class="node" transform="translate(389.14223696422545,112.90134506328283)"><circle class="outline" cx="0" cy="0" r="25" fill="#F79767" stroke="#f36924" stroke-width="2px"/><text text-anchor="middle" pointer-events="none" font-family="sans-serif" dy="1.5625" font-size="25" fill="#FFFFFF"/><text text-anchor="middle" pointer-events="none" font-family="sans-serif" dy="1.5625" font-size="25" fill="#FFFFFF"/><text text-anchor="middle" pointer-events="none" y="0" font-size="10px" fill="#FFFFFF" font-family="sans-serif"> Cameron</text><text text-anchor="middle" pointer-events="none" y="10" font-size="10px" fill="#FFFFFF" font-family="sans-serif"> Crowe</text></g><g class="node" transform="translate(302.06401312830883,55.8225975001065)"><circle class="outline" cx="0" cy="0" r="25" fill="#57C7E3" stroke="#23b3d7" stroke-width="2px"/><text text-anchor="middle" pointer-events="none" font-family="sans-serif" dy="1.5625" font-size="25" fill="#FFFFFF"/><text text-anchor="middle" pointer-events="none" font-family="sans-serif" dy="1.5625" font-size="25" fill="#FFFFFF"/><text text-anchor="middle" pointer-events="none" y="0" font-size="10px" fill="#FFFFFF" font-family="sans-serif"> Jerry</text><text text-anchor="middle" pointer-events="none" y="10" font-size="10px" fill="#FFFFFF" font-family="sans-serif"> Maguire</text></g><g class="node" transform="translate(278.63742091229597,-118.03400111918718)"><circle class="outline" cx="0" cy="0" r="25" fill="#F79767" stroke="#f36924" stroke-width="2px"/><text text-anchor="middle" pointer-events="none" font-family="sans-serif" dy="1.5625" font-size="25" fill="#FFFFFF"/><text text-anchor="middle" pointer-events="none" font-family="sans-serif" dy="1.5625" font-size="25" fill="#FFFFFF"/><text text-anchor="middle" pointer-events="none" y="0" font-size="10px" fill="#FFFFFF" font-family="sans-serif"> Nancy</text><text text-anchor="middle" pointer-events="none" y="10" font-size="10px" fill="#FFFFFF" font-family="sans-serif"> Meyers</text></g><g class="node" transform="translate(177.7503782320307,-97.61424336621816)"><circle class="outline" cx="0" cy="0" r="25" fill="#57C7E3" stroke="#23b3d7" stroke-width="2px"/><text text-anchor="middle" pointer-events="none" font-family="sans-serif" dy="1.5625" font-size="25" fill="#FFFFFF"/><text text-anchor="middle" pointer-events="none" y="5" font-size="10px" fill="#FFFFFF" font-family="sans-serif"> Somethi…</text></g><g class="node" transform="translate(2.406219933552713,-156.8980130350564)"><circle class="outline" cx="0" cy="0" r="25" fill="#F79767" stroke="#f36924" stroke-width="2px"/><text text-anchor="middle" pointer-events="none" font-family="sans-serif" dy="1.5625" font-size="25" fill="#FFFFFF"/><text text-anchor="middle" pointer-events="none" font-family="sans-serif" dy="1.5625" font-size="25" fill="#FFFFFF"/><text text-anchor="middle" pointer-events="none" y="0" font-size="10px" fill="#FFFFFF" font-family="sans-serif"> Lilly</text><text text-anchor="middle" pointer-events="none" y="10" font-size="10px" fill="#FFFFFF" font-family="sans-serif"> Wacho…</text></g><g class="node" transform="translate(-78.17702104788754,-87.89527264803502)"><circle class="outline" cx="0" cy="0" r="25" fill="#57C7E3" stroke="#23b3d7" stroke-width="2px"/><text text-anchor="middle" pointer-events="none" font-family="sans-serif" dy="1.5625" font-size="25" fill="#FFFFFF"/><text text-anchor="middle" pointer-events="none" font-family="sans-serif" dy="1.5625" font-size="25" fill="#FFFFFF"/><text text-anchor="middle" pointer-events="none" y="0" font-size="10px" fill="#FFFFFF" font-family="sans-serif"> Speed</text><text text-anchor="middle" pointer-events="none" y="10" font-size="10px" fill="#FFFFFF" font-family="sans-serif"> Racer</text></g><g class="node" transform="translate(-5.930079607287892,-6.868300349852475)"><circle class="outline" cx="0" cy="0" r="25" fill="#F79767" stroke="#f36924" stroke-width="2px"/><text text-anchor="middle" pointer-events="none" font-family="sans-serif" dy="1.5625" font-size="25" fill="#FFFFFF"/><text text-anchor="middle" pointer-events="none" font-family="sans-serif" dy="1.5625" font-size="25" fill="#FFFFFF"/><text text-anchor="middle" pointer-events="none" y="0" font-size="10px" fill="#FFFFFF" font-family="sans-serif"> Lana</text><text text-anchor="middle" pointer-events="none" y="10" font-size="10px" fill="#FFFFFF" font-family="sans-serif"> Wacho…</text></g><g class="node" transform="translate(-163.3635300420625,79.3902166220181)"><circle class="outline" cx="0" cy="0" r="25" fill="#F79767" stroke="#f36924" stroke-width="2px"/><text text-anchor="middle" pointer-events="none" font-family="sans-serif" dy="1.5625" font-size="25" fill="#FFFFFF"/><text text-anchor="middle" pointer-events="none" font-family="sans-serif" dy="1.5625" font-size="25" fill="#FFFFFF"/><text text-anchor="middle" pointer-events="none" y="0" font-size="10px" fill="#FFFFFF" font-family="sans-serif"> Cameron</text><text text-anchor="middle" pointer-events="none" y="10" font-size="10px" fill="#FFFFFF" font-family="sans-serif"> Crowe</text></g><g class="node" transform="translate(-159.4903501650288,183.13615786372347)"><circle class="outline" cx="0" cy="0" r="25" fill="#57C7E3" stroke="#23b3d7" stroke-width="2px"/><text text-anchor="middle" pointer-events="none" font-family="sans-serif" dy="1.5625" font-size="25" fill="#FFFFFF"/><text text-anchor="middle" pointer-events="none" font-family="sans-serif" dy="1.5625" font-size="25" fill="#FFFFFF"/><text text-anchor="middle" pointer-events="none" y="0" font-size="10px" fill="#FFFFFF" font-family="sans-serif"> Jerry</text><text text-anchor="middle" pointer-events="none" y="10" font-size="10px" fill="#FFFFFF" font-family="sans-serif"> Maguire</text></g><g class="node" transform="translate(-11.03706494235494,257.0490301579353)"><circle class="outline" cx="0" cy="0" r="25" fill="#F79767" stroke="#f36924" stroke-width="2px"/><text text-anchor="middle" pointer-events="none" font-family="sans-serif" dy="1.5625" font-size="25" fill="#FFFFFF"/><text text-anchor="middle" pointer-events="none" font-family="sans-serif" dy="1.5625" font-size="25" fill="#FFFFFF"/><text text-anchor="middle" pointer-events="none" y="0" font-size="10px" fill="#FFFFFF" font-family="sans-serif"> Nancy</text><text text-anchor="middle" pointer-events="none" y="10" font-size="10px" fill="#FFFFFF" font-family="sans-serif"> Meyers</text></g><g class="node" transform="translate(-26.320936790681984,360.54528623993207)"><circle class="outline" cx="0" cy="0" r="25" fill="#57C7E3" stroke="#23b3d7" stroke-width="2px"/><text text-anchor="middle" pointer-events="none" font-family="sans-serif" dy="1.5625" font-size="25" fill="#FFFFFF"/><text text-anchor="middle" pointer-events="none" y="5" font-size="10px" fill="#FFFFFF" font-family="sans-serif"> Somethi…</text></g></g></svg>