<svg xmlns="http://www.w3.org/2000/svg" width="314.1783447265625" height="465.658447265625" viewBox="-17.663562774658203 -135.9501953125 314.1783447265625 465.658447265625"><title>Neo4j Graph Visualization</title><desc>Created using Neo4j (http://www.neo4j.com/)</desc><g class="layer relationships"><g class="relationship" transform="translate(158.220347710726 180.59357727501637) rotate(463.56421444130655)"><path class="outline" fill="#A5ABB6" stroke="none" d="M 25 0.5 L 35.49928763139423 0.5 L 35.49928763139423 -0.5 L 25 -0.5 Z M 81.06178763139422 0.5 L 91.56107526278846 0.5 L 91.56107526278846 3.5 L 98.56107526278846 0 L 91.56107526278846 -3.5 L 91.56107526278846 -0.5 L 81.06178763139422 -0.5 Z"/><text text-anchor="middle" pointer-events="none" font-size="8px" fill="#000000" x="58.28053763139423" y="3" transform="rotate(180 58.28053763139423 0)" font-family="sans-serif">ACTED_IN</text></g><g class="relationship" transform="translate(158.220347710726 180.59357727501637) rotate(349.93201840588586)"><path class="outline" fill="#A5ABB6" stroke="none" d="M 25 0.5 L 29.220639931156313 0.5 L 29.220639931156313 -0.5 L 25 -0.5 Z M 74.78313993115631 0.5 L 79.00377986231263 0.5 L 79.00377986231263 3.5 L 86.00377986231263 0 L 79.00377986231263 -3.5 L 79.00377986231263 -0.5 L 74.78313993115631 -0.5 Z"/><text text-anchor="middle" pointer-events="none" font-size="8px" fill="#000000" x="52.00188993115631" y="3" font-family="sans-serif">ACTED_IN</text></g><g class="relationship" transform="translate(158.220347710726 180.59357727501637) rotate(498.3493253137549)"><path class="outline" fill="#A5ABB6" stroke="none" d="M 25 0.5 L 27.222057760992065 0.5 L 27.222057760992065 -0.5 L 25 -0.5 Z M 62.557995260992065 0.5 L 64.78005302198413 0.5 L 64.78005302198413 3.5 L 71.78005302198413 0 L 64.78005302198413 -3.5 L 64.78005302198413 -0.5 L 62.557995260992065 -0.5 Z"/><text text-anchor="middle" pointer-events="none" font-size="8px" fill="#000000" x="44.890026510992065" y="3" transform="rotate(180 44.890026510992065 0)" font-family="sans-serif">ACTE…</text></g><g class="relationship" transform="translate(216.6854561765247 259.231964449811) rotate(514.6242906189751)"><path class="outline" fill="#A5ABB6" stroke="none" d="M 25 0.5 L 27.223207067382432 0.5 L 27.223207067382432 -0.5 L 25 -0.5 Z M 62.55914456738243 0.5 L 64.78235163476486 0.5 L 64.78235163476486 3.5 L 71.78235163476486 0 L 64.78235163476486 -3.5 L 64.78235163476486 -0.5 L 62.55914456738243 -0.5 Z"/><text text-anchor="middle" pointer-events="none" font-size="8px" fill="#000000" x="44.89117581738243" y="3" transform="rotate(180 44.89117581738243 0)" font-family="sans-serif">ACTE…</text></g><g class="relationship" transform="translate(216.6854561765247 259.231964449811) rotate(297.4038271518394)"><path class="outline" fill="#A5ABB6" stroke="none" d="M 25 0.5 L 28.936917913558922 0.5 L 28.936917913558922 -0.5 L 25 -0.5 Z M 74.49941791355891 0.5 L 78.43633582711784 0.5 L 78.43633582711784 3.5 L 85.43633582711784 0 L 78.43633582711784 -3.5 L 78.43633582711784 -0.5 L 74.49941791355891 -0.5 Z"/><text text-anchor="middle" pointer-events="none" font-size="8px" fill="#000000" x="51.71816791355892" y="3" font-family="sans-serif">ACTED_IN</text></g><g class="relationship" transform="translate(216.6854561765247 259.231964449811) rotate(186.24862741388188)"><path class="outline" fill="#A5ABB6" stroke="none" d="M 25 0.5 L 39.49965263678004 0.5 L 39.49965263678004 -0.5 L 25 -0.5 Z M 85.06215263678004 0.5 L 99.56180527356008 0.5 L 99.56180527356008 3.5 L 106.56180527356008 0 L 99.56180527356008 -3.5 L 99.56180527356008 -0.5 L 85.06215263678004 -0.5 Z"/><text text-anchor="middle" pointer-events="none" font-size="8px" fill="#000000" x="62.28090263678004" y="3" transform="rotate(180 62.28090263678004 0)" font-family="sans-serif">ACTED_IN</text></g><g class="relationship" transform="translate(128.22376794043737 -43.65017100737355) rotate(208.4376393381848)"><path class="outline" fill="#A5ABB6" stroke="none" d="M 25 0.5 L 40.182161452109085 0.5 L 40.182161452109085 -0.5 L 25 -0.5 Z M 85.74466145210909 0.5 L 100.92682290421817 0.5 L 100.92682290421817 3.5 L 107.92682290421817 0 L 100.92682290421817 -3.5 L 100.92682290421817 -0.5 L 85.74466145210909 -0.5 Z"/><text text-anchor="middle" pointer-events="none" font-size="8px" fill="#000000" x="62.963411452109085" y="3" transform="rotate(180 62.963411452109085 0)" font-family="sans-serif">ACTED_IN</text></g><g class="relationship" transform="translate(128.22376794043737 -43.65017100737355) rotate(529.2997698589343)"><path class="outline" fill="#A5ABB6" stroke="none" d="M 25 0.5 L 32.38360952896827 0.5 L 32.38360952896827 -0.5 L 25 -0.5 Z M 77.94610952896826 0.5 L 85.32971905793654 0.5 L 85.32971905793654 3.5 L 92.32971905793654 0 L 85.32971905793654 -3.5 L 85.32971905793654 -0.5 L 77.94610952896826 -0.5 Z"/><text text-anchor="middle" pointer-events="none" font-size="8px" fill="#000000" x="55.16485952896827" y="3" transform="rotate(180 55.16485952896827 0)" font-family="sans-serif">ACTED_IN</text></g><g class="relationship" transform="translate(128.22376794043737 -43.65017100737355) rotate(486.0564165515135)"><path class="outline" fill="#A5ABB6" stroke="none" d="M 25 0.5 L 27.02095825879085 0.5 L 27.02095825879085 -0.5 L 25 -0.5 Z M 57.02095825879085 0.5 L 59.0419165175817 0.5 L 59.0419165175817 3.5 L 66.0419165175817 0 L 59.0419165175817 -3.5 L 59.0419165175817 -0.5 L 57.02095825879085 -0.5 Z"/><text text-anchor="middle" pointer-events="none" font-size="8px" fill="#000000" x="42.02095825879085" y="3" transform="rotate(180 42.02095825879085 0)" font-family="sans-serif">ACT…</text></g><g class="relationship" transform="translate(99.5275471893927 -96.32338740088151) rotate(186.87086583005618)"><path class="outline" fill="#A5ABB6" stroke="none" d="M 25 0.5 L 25.91452715435794 0.5 L 25.91452715435794 -0.5 L 25 -0.5 Z M 55.91452715435794 0.5 L 56.82905430871588 0.5 L 56.82905430871588 3.5 L 63.82905430871588 0 L 56.82905430871588 -3.5 L 56.82905430871588 -0.5 L 55.91452715435794 -0.5 Z"/><text text-anchor="middle" pointer-events="none" font-size="8px" fill="#000000" x="40.91452715435794" y="3" transform="rotate(180 40.91452715435794 0)" font-family="sans-serif">ACT…</text></g><g class="relationship" transform="translate(99.5275471893927 -96.32338740088151) rotate(499.30918998576317)"><path class="outline" fill="#A5ABB6" stroke="none" d="M 25 0.5 L 30.820392247951638 0.5 L 30.820392247951638 -0.5 L 25 -0.5 Z M 76.38289224795165 0.5 L 82.20328449590328 0.5 L 82.20328449590328 3.5 L 89.20328449590328 0 L 82.20328449590328 -3.5 L 82.20328449590328 -0.5 L 76.38289224795165 -0.5 Z"/><text text-anchor="middle" pointer-events="none" font-size="8px" fill="#000000" x="53.60164224795164" y="3" transform="rotate(180 53.60164224795164 0)" font-family="sans-serif">ACTED_IN</text></g><g class="relationship" transform="translate(99.5275471893927 -96.32338740088151) rotate(461.15033060740797)"><path class="outline" fill="#A5ABB6" stroke="none" d="M 25 0.5 L 38.07098967759033 0.5 L 38.07098967759033 -0.5 L 25 -0.5 Z M 83.63348967759033 0.5 L 96.70447935518067 0.5 L 96.70447935518067 3.5 L 103.70447935518067 0 L 96.70447935518067 -3.5 L 96.70447935518067 -0.5 L 83.63348967759033 -0.5 Z"/><text text-anchor="middle" pointer-events="none" font-size="8px" fill="#000000" x="60.85223967759033" y="3" transform="rotate(180 60.85223967759033 0)" font-family="sans-serif">ACTED_IN</text></g></g><g class="layer nodes"><g class="node" transform="translate(158.220347710726,180.59357727501637)"><circle class="outline" cx="0" cy="0" r="25" fill="#F79767" stroke="#f36924" stroke-width="2px"/><text text-anchor="middle" pointer-events="none" font-family="sans-serif" dy="1.5625" font-size="25" fill="#FFFFFF"/><text text-anchor="middle" pointer-events="none" font-family="sans-serif" dy="1.5625" font-size="25" fill="#FFFFFF"/><text text-anchor="middle" pointer-events="none" y="0" font-size="10px" fill="#FFFFFF" font-family="sans-serif"> Keanu</text><text text-anchor="middle" pointer-events="none" y="10" font-size="10px" fill="#FFFFFF" font-family="sans-serif"> Reeves</text></g><g class="node" transform="translate(216.6854561765247,259.231964449811)"><circle class="outline" cx="0" cy="0" r="25" fill="#F79767" stroke="#f36924" stroke-width="2px"/><text text-anchor="middle" pointer-events="none" font-family="sans-serif" dy="1.5625" font-size="25" fill="#FFFFFF"/><text text-anchor="middle" pointer-events="none" font-family="sans-serif" dy="1.5625" font-size="25" fill="#FFFFFF"/><text text-anchor="middle" pointer-events="none" y="0" font-size="10px" fill="#FFFFFF" font-family="sans-serif"> Hugo</text><text text-anchor="middle" pointer-events="none" y="10" font-size="10px" fill="#FFFFFF" font-family="sans-serif"> Weaving</text></g><g class="node" transform="translate(129.24095043769563,300.7082468778103)"><circle class="outline" cx="0" cy="0" r="25" fill="#57C7E3" stroke="#23b3d7" stroke-width="2px"/><text text-anchor="middle" pointer-events="none" font-family="sans-serif" dy="1.5625" font-size="25" fill="#FFFFFF"/><text text-anchor="middle" pointer-events="none" font-family="sans-serif" dy="1.5625" font-size="25" fill="#FFFFFF"/><text text-anchor="middle" pointer-events="none" font-family="sans-serif" dy="1.5625" font-size="25" fill="#FFFFFF"/><text text-anchor="middle" pointer-events="none" y="-5" font-size="10px" fill="#FFFFFF" font-family="sans-serif"> The</text><text text-anchor="middle" pointer-events="none" y="5" font-size="10px" fill="#FFFFFF" font-family="sans-serif"> Matrix</text><text text-anchor="middle" pointer-events="none" y="15" font-size="10px" fill="#FFFFFF" font-family="sans-serif"> Revol…</text></g><g class="node" transform="translate(267.5147832349957,161.1882814217702)"><circle class="outline" cx="0" cy="0" r="25" fill="#57C7E3" stroke="#23b3d7" stroke-width="2px"/><text text-anchor="middle" pointer-events="none" font-family="sans-serif" dy="1.5625" font-size="25" fill="#FFFFFF"/><text text-anchor="middle" pointer-events="none" font-family="sans-serif" dy="1.5625" font-size="25" fill="#FFFFFF"/><text text-anchor="middle" pointer-events="none" font-family="sans-serif" dy="1.5625" font-size="25" fill="#FFFFFF"/><text text-anchor="middle" pointer-events="none" y="-5" font-size="10px" fill="#FFFFFF" font-family="sans-serif"> The</text><text text-anchor="middle" pointer-events="none" y="5" font-size="10px" fill="#FFFFFF" font-family="sans-serif"> Matrix</text><text text-anchor="middle" pointer-events="none" y="15" font-size="10px" fill="#FFFFFF" font-family="sans-serif"> Reloa…</text></g><g class="node" transform="translate(85.90526669665061,244.91237484513402)"><circle class="outline" cx="0" cy="0" r="25" fill="#57C7E3" stroke="#23b3d7" stroke-width="2px"/><text text-anchor="middle" pointer-events="none" font-family="sans-serif" dy="1.5625" font-size="25" fill="#FFFFFF"/><text text-anchor="middle" pointer-events="none" font-family="sans-serif" dy="1.5625" font-size="25" fill="#FFFFFF"/><text text-anchor="middle" pointer-events="none" y="0" font-size="10px" fill="#FFFFFF" font-family="sans-serif"> The</text><text text-anchor="middle" pointer-events="none" y="10" font-size="10px" fill="#FFFFFF" font-family="sans-serif"> Matrix</text></g><g class="node" transform="translate(128.22376794043737,-43.65017100737355)"><circle class="outline" cx="0" cy="0" r="25" fill="#F79767" stroke="#f36924" stroke-width="2px"/><text text-anchor="middle" pointer-events="none" font-family="sans-serif" dy="1.5625" font-size="25" fill="#FFFFFF"/><text text-anchor="middle" pointer-events="none" font-family="sans-serif" dy="1.5625" font-size="25" fill="#FFFFFF"/><text text-anchor="middle" pointer-events="none" y="0" font-size="10px" fill="#FFFFFF" font-family="sans-serif"> Keanu</text><text text-anchor="middle" pointer-events="none" y="10" font-size="10px" fill="#FFFFFF" font-family="sans-serif"> Reeves</text></g><g class="node" transform="translate(99.5275471893927,-96.32338740088151)"><circle class="outline" cx="0" cy="0" r="25" fill="#F79767" stroke="#f36924" stroke-width="2px"/><text text-anchor="middle" pointer-events="none" font-family="sans-serif" dy="1.5625" font-size="25" fill="#FFFFFF"/><text text-anchor="middle" pointer-events="none" font-family="sans-serif" dy="1.5625" font-size="25" fill="#FFFFFF"/><text text-anchor="middle" pointer-events="none" y="0" font-size="10px" fill="#FFFFFF" font-family="sans-serif"> Hugo</text><text text-anchor="middle" pointer-events="none" y="10" font-size="10px" fill="#FFFFFF" font-family="sans-serif"> Weaving</text></g><g class="node" transform="translate(11.336436355465787,-106.95018650780047)"><circle class="outline" cx="0" cy="0" r="25" fill="#57C7E3" stroke="#23b3d7" stroke-width="2px"/><text text-anchor="middle" pointer-events="none" font-family="sans-serif" dy="1.5625" font-size="25" fill="#FFFFFF"/><text text-anchor="middle" pointer-events="none" font-family="sans-serif" dy="1.5625" font-size="25" fill="#FFFFFF"/><text text-anchor="middle" pointer-events="none" font-family="sans-serif" dy="1.5625" font-size="25" fill="#FFFFFF"/><text text-anchor="middle" pointer-events="none" y="-5" font-size="10px" fill="#FFFFFF" font-family="sans-serif"> The</text><text text-anchor="middle" pointer-events="none" y="5" font-size="10px" fill="#FFFFFF" font-family="sans-serif"> Matrix</text><text text-anchor="middle" pointer-events="none" y="15" font-size="10px" fill="#FFFFFF" font-family="sans-serif"> Revol…</text></g><g class="node" transform="translate(12.93417208123664,-21.865496099620508)"><circle class="outline" cx="0" cy="0" r="25" fill="#57C7E3" stroke="#23b3d7" stroke-width="2px"/><text text-anchor="middle" pointer-events="none" font-family="sans-serif" dy="1.5625" font-size="25" fill="#FFFFFF"/><text text-anchor="middle" pointer-events="none" font-family="sans-serif" dy="1.5625" font-size="25" fill="#FFFFFF"/><text text-anchor="middle" pointer-events="none" font-family="sans-serif" dy="1.5625" font-size="25" fill="#FFFFFF"/><text text-anchor="middle" pointer-events="none" y="-5" font-size="10px" fill="#FFFFFF" font-family="sans-serif"> The</text><text text-anchor="middle" pointer-events="none" y="5" font-size="10px" fill="#FFFFFF" font-family="sans-serif"> Matrix</text><text text-anchor="middle" pointer-events="none" y="15" font-size="10px" fill="#FFFFFF" font-family="sans-serif"> Reloa…</text></g><g class="node" transform="translate(74.63817382552502,29.95155904393833)"><circle class="outline" cx="0" cy="0" r="25" fill="#57C7E3" stroke="#23b3d7" stroke-width="2px"/><text text-anchor="middle" pointer-events="none" font-family="sans-serif" dy="1.5625" font-size="25" fill="#FFFFFF"/><text text-anchor="middle" pointer-events="none" font-family="sans-serif" dy="1.5625" font-size="25" fill="#FFFFFF"/><text text-anchor="middle" pointer-events="none" y="0" font-size="10px" fill="#FFFFFF" font-family="sans-serif"> The</text><text text-anchor="middle" pointer-events="none" y="10" font-size="10px" fill="#FFFFFF" font-family="sans-serif"> Matrix</text></g></g></svg>